<?xml version="1.0" encoding="utf-8"?>
<!-- Generator: Adobe Illustrator 16.0.3, SVG Export Plug-In . SVG Version: 6.00 Build 0)  -->
<!DOCTYPE svg PUBLIC "-//W3C//DTD SVG 1.1//EN" "http://www.w3.org/Graphics/SVG/1.1/DTD/svg11.dtd">
<svg version="1.1" id="Capa_1" xmlns="http://www.w3.org/2000/svg" xmlns:xlink="http://www.w3.org/1999/xlink" x="0px" y="0px"
	 width="500px" height="500px" viewBox="0 0 500 500" enable-background="new 0 0 500 500" xml:space="preserve">
<g>
	<path fill-rule="evenodd" clip-rule="evenodd" d="M254.067,482.388c-2.195,0-4.39,0-6.584,0c-7.331-1.834-14.343-4.649-21.47-7.094
		c-13.065-4.479-26.15-8.898-39.24-13.305c-21.653-7.289-43.443-14.15-65.237-21.003c-11.585-3.643-22.914-8.013-33.414-14.228
		c-20.677-12.238-34.626-29.968-42.708-52.493c-4.631-12.908-7.063-26.246-8.438-39.847c-0.997-9.855-1.004-19.734-0.607-29.579
		c0.569-14.128,2.605-28.12,5.468-41.978c1.724-8.343,3.561-16.666,4.917-25.078c1.253-7.767,2.219-15.57,2.723-23.431
		c0.165-2.576,0.325-5.143,0.342-7.725c0.065-9.94-1.983-19.471-5.497-28.725c-2.847-7.498-6.67-14.542-10.146-21.744
		c-4.41-9.138-8.48-18.398-11.445-28.121c-0.548-1.799-0.577-3.668-1.05-5.465c0-1.808,0-3.615,0-5.422
		c0.952-3.388,3.069-6.051,5.383-8.58c3.668-4.01,7.892-7.41,12.058-10.87c3.475-2.886,6.693-6.061,9.897-9.224
		c12.532-12.372,24.947-24.861,37.377-37.335c1.779-1.786,3.65-3.462,5.572-5.08c3.616-3.044,7.604-3.813,12.076-1.936
		c5.884,2.47,11.629,5.279,17.741,7.198c5.875,1.844,11.867,3.201,18.021,3.213c7.826,0.016,14.98-2.22,21.097-7.357
		c6.549-5.501,11.271-12.329,14.856-20.015c0.518-1.111,1.086-2.198,1.641-3.29c1.472-2.898,3.542-5.042,6.952-5.489
		c44.153,0,88.307,0,132.46,0c1.841,0.286,3.117,1.306,4.076,2.892c2.302,3.811,4.202,7.85,6.614,11.594
		c5.182,8.041,11.386,14.997,20.3,19.071c3.746,1.712,7.676,2.546,11.784,2.769c8.108,0.439,15.714-1.711,23.245-4.319
		c1.235-0.428,2.281-1.191,3.362-1.896c9.332-6.081,16.887-5.339,25.591,0.958c2.661,1.925,5.08,4.164,7.41,6.501
		c13.848,13.894,27.715,27.768,41.609,41.615c4.657,4.642,9.524,9.066,14.472,13.398c1.917,1.678,2.875,3.918,3.82,6.181
		c0,2.065,0,4.131,0,6.197c-1.433,8.132-4.61,15.677-7.931,23.154c-3.614,8.139-7.801,16.002-11.859,23.928
		c-4.371,8.537-6.785,17.649-7.628,27.22c-0.534,6.064-0.528,12.136-0.214,18.172c0.492,9.467,1.892,18.854,3.544,28.195
		c2.146,12.135,4.714,24.196,6.566,36.382c1.278,8.413,2.173,16.863,2.644,25.376c0.325,5.874,0.402,11.74,0.255,17.598
		c-0.356,14.113-2.334,28.007-6.41,41.56c-3.171,10.545-7.282,20.688-13.052,30.103c-8.627,14.075-20.336,24.91-34.75,32.881
		c-9.752,5.394-20.131,9.328-30.62,12.956c-20.675,7.152-41.758,13.025-62.539,19.847c-14.348,4.71-28.67,9.484-42.625,15.294
		c-5.004,2.084-10.119,3.876-15.316,5.435C257.487,481.95,255.736,481.928,254.067,482.388z"/>
	<path fill-rule="evenodd" clip-rule="evenodd" fill="#FAFBFB" d="M248.749,468.03c-1.328,0.184-2.481-0.243-3.589-0.775
		c-16.807-8.066-34.492-13.847-51.952-20.25c-17.362-6.368-35.418-10.333-52.937-16.123c-13.814-4.565-27.469-9.502-40.754-15.467
		c-15.705-7.052-27.243-18.392-34.862-33.689c-9.193-18.459-14.338-37.981-14.85-58.68c-0.351-14.178,1.301-28.172,3.458-42.132
		c2.694-17.443,6.507-34.696,8.953-52.18c1.784-12.747,2.519-25.541,0.915-38.372c-0.88-7.041-3.492-13.556-6.404-19.956
		c-6.553-14.405-12.679-29.004-19.75-43.173c-2.198-4.406-1.722-6.796,1.867-10.192c18.605-17.604,37.021-35.402,55.2-53.445
		c3.764-3.735,7.228-4.254,11.938-1.757c11.046,5.855,22.833,8.27,35.245,7.683c16.188-0.764,28.658-8.324,38.135-21.216
		c2.755-3.747,5.147-7.717,7.286-11.837c2.519-4.854,6.472-7.028,11.924-7.001c23.428,0.115,46.856,0.149,70.285,0.188
		c10.327,0.017,20.657,0.102,30.981-0.091c5.082-0.095,8.484,1.8,10.918,6.335c4.506,8.394,10.086,16.042,17.276,22.401
		c12.057,10.665,26.087,13.645,41.642,10.66c7.117-1.366,13.897-3.763,20.521-6.654c6.311-2.755,9.605-2.208,14.493,2.616
		c15.427,15.23,30.996,30.313,46.708,45.249c2.571,2.444,5.17,4.859,7.709,7.336c2.568,2.506,3.431,5.493,1.816,8.801
		c-5.501,11.274-9.752,23.137-15.89,34.101c-9.257,16.538-12.442,34.299-11.413,53.055c0.729,13.307,3.314,26.324,5.669,39.378
		c2.894,16.042,5.904,32.06,7.477,48.304c2.346,24.242,0.072,47.866-9.503,70.497c-3.701,8.747-8.048,17.144-14.127,24.519
		c-8.288,10.055-18.679,16.664-31.126,20.875c-38.016,12.861-76.134,25.443-113.775,39.391c-8.63,3.198-17.129,6.723-25.448,10.668
		C251.489,467.712,250.171,468.212,248.749,468.03z"/>
	<path fill-rule="evenodd" clip-rule="evenodd" fill="#0B8D36" d="M215.783,195.373c6.82,0.007,13.64,0.014,20.46,0.021
		c0.531-0.313,1.119-0.26,1.697-0.258c10.708,0.042,21.415,0,32.122,0.025c0.956,0.002,1.949-0.134,2.814,0.458
		c4.445,0.034,8.892,0.067,13.337,0.101c0.651-0.274,1.311-0.494,2.036-0.483c3.77,0.056,7.543-0.141,11.313,0.11
		c0.246,0.073,0.46,0.203,0.64,0.386c0.757-0.057,1.175,0.138,1.139,1.054c-0.062,1.545,0.03,3.096,0.033,4.644
		c0.038,19.105,0.053,38.209,0.11,57.314c0.048,15.616,0.131,31.232,0.251,46.849c0.01,1.29-0.377,2.107-1.394,2.903
		c-6.302,4.927-12.551,9.92-18.812,14.899c-0.649,0.517-1.261,1.081-1.89,1.623c-1.469,2.453-3.992,3.711-6.16,5.355
		c-0.917,0.696-1.881,1.344-2.802,2.044c-0.38,0.288-0.67,0.597-0.646,1.107c-4.858,2.609-8.691,6.586-13.092,9.808
		c-2.511,1.838-2.682,1.848-5.215,0.019c-2.509-1.813-5.002-3.646-7.47-5.514c-2.447-2.07-5.056-3.93-7.656-5.799
		c-0.238-0.132-0.471-0.27-0.705-0.408c-1.356-0.828-2.599-1.813-3.845-2.79c-0.467-0.367-1.153-0.654-0.906-1.481
		c-9.521-7.171-19.037-14.35-28.574-21.501c-1.023-0.767-1.662-1.493-1.661-2.954c0.019-35.21-0.016-70.42-0.1-105.63
		c-0.003-1.648,0.445-2.248,2.04-1.924c3.741-0.771,7.526-0.56,11.304-0.519C214.748,194.839,215.265,195.114,215.783,195.373z"/>
	<path fill-rule="evenodd" clip-rule="evenodd" d="M269.855,333.327c-1.071-0.654,0.042-0.883,0.289-1.078
		c2.569-2.026,5.406-3.696,7.848-5.897c0.524-0.472,1.099-0.889,1.648-1.332c14.487-0.278,28.843,0.836,43.025,3.938
		c5.28,1.154,7.293,4.045,6.403,9.455c-0.417,2.535-1.028,5.061-0.615,7.664c0.348,2.194,0.88,2.427,2.649,1.164
		c1.56-1.113,2.097-2.679,2.11-4.532c0.018-2.568-0.399-5.124,0.098-7.71c0.699-3.634,2.915-5.578,6.381-6.377
		c2.099-0.483,4.182-1.009,6.199-1.809c0.716-0.284,1.595-0.574,2.426-0.123c0.907,0.492,1.882,0.384,2.84,0.281
		c4.347-0.462,7.657,1.612,9.122,5.738c0.15,0.424,0.227,0.914,0.493,1.25c3.154,3.982,2.916,8.849,3.247,13.451
		c0.37,5.145,1.057,10.247,1.564,15.369c0.439,4.438-1.224,7.636-5.545,8.793c-4.035,1.079-8.141,1.887-12.179,2.993
		c-6.684,1.832-13.269,4.15-20.288,4.501c-8.418,0.422-16.822,0.526-25.203-0.635c-1.06-0.146-1.344-0.559-1.463-1.554
		c-0.687-5.733-3.189-7.833-8.872-7.997c-12.696-0.367-25.396-0.576-38.09-0.209c-11.407,0.33-22.828-0.061-34.224,0.686
		c-1.989,0.131-3.988,0.362-5.938,0.766c-3.117,0.647-5.195,2.536-5.771,5.744c-0.215,1.197-0.732,1.736-1.895,1.986
		c-1.755,0.378-3.447,0.95-5.093,1.742c-2.4,1.154-5.022,1.296-7.566,0.589c-6.406-1.779-13.074-0.891-19.516-2.021
		c-4.198-0.735-8.505-1.116-12.489-2.9c-1.386-0.62-2.96-0.706-4.431-1.221c-2.893-1.013-5.657-2.256-8.367-3.655
		c-0.957-0.494-1.871-0.944-3.048-0.953c-1.379-0.011-2.675-1.861-2.563-3.34c0.665-8.736,1.498-17.46,1.848-26.22
		c0.167-4.181,2.954-6.978,5.923-9.085c3.878-2.753,8.469-3.936,13.396-3.078c6.816,1.187,10.686,5.339,11.277,12.213
		c0.205,2.371,0.528,4.731,0.798,7.112c0.755-0.158,0.552-0.684,0.582-1.085c0.16-2.186,0.246-4.377,0.471-6.555
		c0.473-4.555,2.181-6.631,6.637-7.598c4.149-0.9,8.354-1.559,12.549-2.235c8.655-1.396,17.326-2.71,26.128-2.595
		c2.831,0.037,5.66,0.255,8.49,0.39c1.478,1.571,3.382,2.604,5.021,3.974c0.798,1.256,0.047,2.108-0.765,2.947
		c-3.242,0.584-6.54,0.515-9.808,0.666c-9.218,0.429-18.424,0.995-27.54,2.429c-2.972,0.468-5.887-0.102-8.846,0.272
		c-4.989,0.629-5.899,1.782-4.305,6.505c0.868,2.569,1.901,5.086,2.996,7.557c2.188,4.933,6.556,4.431,10.229,2.207
		c1.625-0.984,1.6-4.605,0.243-6.604c-0.956-1.408-2.347-2.139-3.912-2.687c-1.026-0.359-2.489-0.531-2.014-2.234
		c0.353-1.267,1.845-1.945,3.337-1.536c4.387,1.201,6.897,4.064,7.528,8.588c0.162,1.158,0.318,2.329,0.172,3.472
		c-0.45,3.52,1.351,6.36,2.69,9.338c0.513,1.141,1.579,1.372,2.747,1.446c2.595,0.166,5.136-0.423,7.725-0.414
		c12.587,0.044,25.183,0.311,37.759-0.057c14.455-0.422,28.905-0.157,43.356-0.313c0.322-0.004,0.646-0.008,0.967-0.03
		c4.415-0.306,6.014-2.188,5.378-6.584c-0.458-3.165,0.046-6.173,1.106-9.119c1.264-3.514,3.859-5.537,7.422-6.423
		c1.371-0.341,2.431,0.048,3.083,1.324c0.636,1.241,0.276,2.248-0.832,3.019c-1.229,0.855-1.635,2.104-1.73,3.513
		c-0.101,1.491,0.241,2.646,1.908,3.118c1.651,0.466,2.528-0.22,3.188-1.651c1.302-2.828,2.345-5.743,2.955-8.79
		c0.715-3.567-0.302-5.013-3.83-5.821c-3.097-0.71-6.27-1.106-9.402-1.13c-8.586-0.063-17.086-1.662-25.688-1.29
		c-3.285,0.142-6.562,0.392-9.839,0.639C271.553,333.757,270.641,334,269.855,333.327z"/>
	<path fill-rule="evenodd" clip-rule="evenodd" fill="#FEEC00" d="M272.876,195.62c-11.722,0.042-23.444,0.082-35.166,0.13
		c-0.528,0.002-1.023-0.05-1.468-0.356c-1.418-1.299-2.762-2.692-4.269-3.878c-3.263-2.569-6.013-5.619-8.658-8.787
		c-0.392-0.469-0.56-0.926-0.646-1.533c-0.945-6.637-0.14-13.209,0.425-19.822c0.309-3.616,0.918-7.445,0.18-10.904
		c-0.794-3.723-2.548-7.315-3.703-11.029c-0.089-0.285-0.396-0.5-0.595-0.754c-1.005-1.284-0.634-2.395,1.017-2.487
		c2.092-0.116,3.853-0.918,5.565-1.987c3.536-2.205,4.446-4.207,3.572-8.296c-0.429-2.007-1.182-3.95-1.555-5.965
		c-0.906-4.899-2.417-9.531-5.131-13.763c-0.871-1.358-0.987-3.045-1.019-4.673c-0.042-2.185,0.805-3.368,2.738-3.819
		c2.337-0.545,4.385,0.146,4.996,2.11c0.531,1.71,1.668,2.417,3.102,3.036c1.738,0.75,2.574,0.44,3.203-1.379
		c0.228-0.657,0.314-1.377,0.367-2.076c0.108-1.435,0.415-2.695,1.409-3.885c1.06-1.268,0.917-3.052,0.894-4.607
		c-0.035-2.489,0.664-4.569,2.504-6.229c0.879-0.792,0.725-1.905,0.927-2.87c0.234-1.12,0.575-2.204,1.388-2.907
		c1.685-1.455,2.346-3.29,2.591-5.401c0.171-1.485,0.906-1.59,2.14-0.882c2.742,1.572,4.572,3.62,4.609,7.001
		c0.023,2.172,1.097,4.061,2.117,5.93c0.788,1.441,1.847,2.731,1.854,4.551c0.005,1.105,0.905,1.998,1.97,2.111
		c1.555,0.165,2.367,1.194,3.239,2.198c1.822,2.096,3.849,3.177,6.865,3.106c3.783-0.09,6.214,2.524,7.689,5.83
		c2.508,5.619,3.177,11.325,0.632,17.19c-0.839,1.934-1.309,4.035-1.86,6.083c-0.197,0.73-0.277,1.551-0.163,2.292
		c0.223,1.447,1.435,2.021,2.47,1.049c2.415-2.269,5.127-1.675,7.829-1.047c1.821,0.423,2.912,1.688,2.848,3.635
		c-0.156,4.704-0.502,9.378-2.915,13.607c-0.383,0.672-0.701,1.405-0.579,2.207c0.536,3.527-1.123,6.222-3.271,8.74
		c-0.693,0.812-1.377,1.632-2.15,2.551c1.032-0.072,1.688-0.606,2.259-1.176c1.389-1.385,3.155-1.931,4.968-2.396
		c2.288-0.587,4.042,0.457,4.036,2.773c-0.017,5.928,0.247,11.924-0.55,17.764c-0.84,6.145-4.722,10.638-10.315,13.477
		c-1.313,0.666-1.862,1.954-2.518,3.087C275.847,194.734,274.815,195.824,272.876,195.62z"/>
	<path fill-rule="evenodd" clip-rule="evenodd" d="M309.393,159.231c-4.036-4.132-9.273-7.126-18.929-10.836
		c1.565-0.851,5.884-1.438,8.284-1.284c6.146,0.393,11.622,2.553,16.598,6.104c4.717,3.367,9.395,6.79,14.173,10.067
		c4.37,2.998,9.394,4.393,14.524,5.371c2.456,0.469,4.963,0.674,7.563,1.015c-1.869,9.41-7.036,16.491-15.203,21.472
		c-1.702,1.038-3.591,2.721-5.287,2.458c-1.767-0.273-1.831-3.053-2.644-4.716c-2.901-5.934-7.03-10.715-12.523-14.395
		c-3.744-2.508-7.329-5.251-11.039-7.813c-1.03-0.712-0.994-1.163-0.188-2.031C306.346,162.899,307.845,161.04,309.393,159.231z"/>
	<path fill-rule="evenodd" clip-rule="evenodd" d="M213.027,149.956c-5.202,1.769-10.195,3.798-14.689,6.886
		c-4.381,3.01-4.387,3.001-1.081,7.011c2.499,3.03,2.497,3.027-0.764,5.204c-3.375,2.253-6.716,4.559-10.125,6.76
		c-6.411,4.142-10.637,10.018-13.611,16.911c-0.358,0.831-0.523,1.651-1.843,0.999c-9.53-4.707-16.089-11.837-18.622-22.367
		c-0.36-1.496-0.243-2.052,1.582-2.106c5.106-0.152,10.053-1.259,14.909-2.914c4.433-1.511,7.937-4.483,11.756-6.961
		c3.782-2.453,7.438-5.104,11.385-7.293c5.904-3.273,12.201-4.351,18.855-3.137C211.505,149.083,212.344,149.07,213.027,149.956z"/>
	<path fill-rule="evenodd" clip-rule="evenodd" d="M300.201,195.733c-0.132,0.002-0.265,0.005-0.397,0.007
		c-3.618-0.368-7.247-0.053-10.868-0.171c-0.751-0.025-1.528,0.195-2.253-0.184c1.609-1.986,3.123-4.061,4.853-5.937
		c2.214-2.402,4.039-5,4.825-8.196c1.031-4.194,3.994-7.094,6.647-10.209c2.352-2.762,2.361-2.752,5.313-0.599
		c3.431,2.502,6.866,4.997,10.288,7.51c0.506,0.372,1.115,0.662,1.445,1.578C312.483,183.704,305.906,189.195,300.201,195.733z"/>
	<path fill-rule="evenodd" clip-rule="evenodd" d="M215.783,195.373c-3.701,0.141-7.422-0.282-11.104,0.395
		c-0.66,0.121-1.257-0.113-1.83-0.417c-4.641-5.665-9.904-10.635-16.141-14.528c-0.921-0.576-1.772-1.264-2.667-1.908
		c0.319-0.766,0.981-1.081,1.545-1.472c4.024-2.788,8.077-5.537,12.083-8.35c0.864-0.607,1.36-0.586,2.031,0.286
		c1.847,2.401,3.824,4.702,5.685,7.093c0.46,0.591,0.808,1.34,0.983,2.071c1.373,5.71,4.364,10.524,8.119,14.936
		C214.979,194.057,215.353,194.738,215.783,195.373z"/>
	<path fill-rule="evenodd" clip-rule="evenodd" d="M233.497,56.938c0-5.893,0.064-11.289-0.041-16.682
		c-0.029-1.493,0.402-1.806,1.811-1.763c3.545,0.107,7.097,0.09,10.644,0.008c1.327-0.031,1.894,0.145,1.909,1.723
		c0.017,1.671-0.635,1.869-2.011,1.813c-2.254-0.091-4.529,0.128-6.769-0.073c-1.739-0.157-1.687,0.725-1.643,1.914
		c0.041,1.082-0.26,2.154,1.567,2.01c2.308-0.182,4.646,0.041,6.963-0.073c1.613-0.08,1.166,0.993,1.144,1.775
		c-0.021,0.75,0.552,1.881-1.103,1.809c-2.383-0.105-4.774,0.021-7.159-0.049c-1.04-0.031-1.429,0.189-1.43,1.342
		c-0.001,3.33-0.062,3.33,3.29,3.33c2.064,0,4.135,0.097,6.191-0.032c1.516-0.095,1.285,0.83,1.27,1.712
		c-0.015,0.905,0.343,1.906-1.305,1.88c-5.612-0.086-11.226-0.053-16.839-0.012c-0.831,0.006-1.287-0.306-1.701-0.964
		c-0.959-1.527-1.957-3.031-2.979-4.516c-0.509-0.74-1.063-1.462-1.857-1.939c-1.012-0.608-2.214-0.597-3.174-0.274
		c-0.692,0.233-0.247,1.394-0.276,2.134c-0.056,1.417-0.104,2.845,0.005,4.256c0.15,1.949-1.262,1.15-2.081,1.206
		c-0.823,0.055-1.924,0.525-1.892-1.217c0.101-5.482,0.062-10.968,0.015-16.451c-0.009-1,0.236-1.327,1.274-1.3
		c2.837,0.072,5.679-0.028,8.516,0.039c3.015,0.072,4.785,1.384,5.525,3.922c0.747,2.561-0.048,4.691-2.367,6.375
		c-0.34,0.247-1.182,0.277-0.482,1.033C230.361,51.871,231.481,54.385,233.497,56.938z"/>
	<path fill-rule="evenodd" clip-rule="evenodd" d="M109.881,182.274c-1.928,3.694-3.962,7.339-5.736,11.106
		c-0.796,1.691-2.064,1.101-3.244,1.237c-1.103,0.126-1.9-0.075-2.47-1.243c-1.793-3.674-3.718-7.285-5.997-10.848
		c0,3.437-0.075,6.875,0.036,10.309c0.046,1.437-0.313,1.865-1.794,1.819c-3.413-0.105-3.416-0.018-3.416-3.451
		c0-4.905,0.032-9.812-0.023-14.716c-0.013-1.179,0.237-1.512,1.538-1.695c3.881-0.545,6.283,0.66,7.713,4.52
		c1.235,3.333,3.193,6.397,5.001,9.911c2.333-4.465,4.533-8.578,6.627-12.744c0.584-1.162,1.208-1.833,2.609-1.638
		c1.51,0.21,3.539-0.645,4.426,0.348c0.748,0.838,0.248,2.814,0.253,4.287c0.014,4.518-0.035,9.037,0.032,13.554
		c0.018,1.205-0.22,1.644-1.547,1.622c-3.632-0.061-3.634,0.011-3.634-3.583c0-2.893,0-5.785,0-8.678
		C110.13,182.351,110.005,182.313,109.881,182.274z"/>
	<path fill-rule="evenodd" clip-rule="evenodd" d="M109.371,122.826c2.398,1.259,3.954,2.979,3.344,5.768
		c-0.595,2.719-2.646,3.967-5.164,4.629c-2.334,0.614-4.72,0.617-7.105,0.624c-2.905,0.008-5.81-0.021-8.714,0.017
		c-0.901,0.012-1.41-0.083-1.399-1.22c0.055-5.809,0.034-11.619,0.014-17.427c-0.002-0.757,0.096-1.212,1.03-1.175
		c4.766,0.188,9.547-0.331,14.305,0.32c0.903,0.124,1.758,0.378,2.583,0.758C112.011,116.846,112.521,119.863,109.371,122.826z"/>
	<path fill-rule="evenodd" clip-rule="evenodd" d="M109.457,213.889c2.308,1.213,3.867,2.932,3.258,5.72
		c-0.594,2.72-2.644,3.973-5.162,4.63c-2.014,0.526-4.071,0.617-6.136,0.622c-3.228,0.007-6.455-0.017-9.682,0.02
		c-0.898,0.01-1.413-0.075-1.402-1.217c0.055-5.808,0.034-11.618,0.015-17.427c-0.002-0.754,0.089-1.215,1.027-1.178
		c4.766,0.188,9.549-0.341,14.303,0.333c0.57,0.081,1.14,0.221,1.687,0.402C111.815,207.271,112.668,210.488,109.457,213.889z"/>
	<path fill-rule="evenodd" clip-rule="evenodd" d="M107.946,276.784c3.25,2.576,5.713,5.71,8.829,8.847
		c-2.305,0-4.255-0.021-6.204,0.011c-0.646,0.011-0.867-0.487-1.211-0.834c-1.857-1.876-3.673-3.794-5.553-5.647
		c-2.377-2.344-5.426-1.529-8.261-1.618c-0.78-0.024-0.527,0.748-0.533,1.205c-0.025,1.934-0.047,3.869,0.005,5.802
		c0.022,0.829-0.234,1.061-1.076,1.111c-4.139,0.25-4.138,0.281-4.138-3.833c0-4.836-0.01-9.672,0.013-14.508
		c0.003-0.605-0.39-1.491,0.881-1.45c5.601,0.178,11.214-0.316,16.807,0.294c0.509,0.056,1.017,0.168,1.509,0.312
		c2.789,0.816,4.445,2.628,4.5,4.894c0.054,2.192-1.436,3.962-4.169,4.945C108.93,276.463,108.509,276.596,107.946,276.784z"/>
	<path fill-rule="evenodd" clip-rule="evenodd" d="M101.742,255.034c-3.288,0-6.577-0.03-9.864,0.02
		c-0.951,0.014-1.335-0.171-1.325-1.247c0.056-5.737,0.061-11.477-0.002-17.214c-0.013-1.172,0.421-1.337,1.438-1.33
		c6.254,0.04,12.509,0.091,18.761-0.022c1.947-0.035,1.333,1.17,1.442,2.135c0.134,1.186-0.022,1.86-1.564,1.82
		c-4.446-0.116-8.898,0.039-13.344-0.083c-1.623-0.044-1.513,0.767-1.534,1.872c-0.021,1.126,0.092,1.732,1.513,1.695
		c4.059-0.106,8.128,0.08,12.183-0.09c1.801-0.076,1.692,0.781,1.74,2.03c0.054,1.398-0.191,2-1.823,1.941
		c-3.993-0.141-7.994,0.003-11.99-0.075c-1.241-0.024-1.655,0.272-1.63,1.58c0.059,3.097-0.015,3.099,3.175,3.099
		c4.126,0,8.257,0.113,12.377-0.052c1.862-0.075,1.496,0.97,1.535,2.024c0.044,1.16,0.126,2.043-1.612,1.948
		C108.067,254.91,104.901,255.034,101.742,255.034z"/>
	<path fill-rule="evenodd" clip-rule="evenodd" d="M101.52,295.663c3.459,0.064,6.783,0.66,9.741,2.585
		c5.632,3.665,5.769,11.412,0.282,15.277c-5.189,3.656-14.983,3.622-20.148-0.07c-5.351-3.826-5.333-11.265,0.055-15.033
		C94.471,296.31,97.927,295.723,101.52,295.663z"/>
	<path fill-rule="evenodd" clip-rule="evenodd" d="M100.565,164.805c-2.658-0.038-5.91-0.667-8.803-2.557
		c-5.829-3.807-5.838-11.619-0.04-15.464c5.121-3.396,14.349-3.4,19.504-0.007c6.055,3.985,5.739,12.35-0.624,15.897
		C107.723,164.28,104.572,164.812,100.565,164.805z"/>
	<path fill-rule="evenodd" clip-rule="evenodd" d="M100.862,346.453c-2.268-0.029-5.146-0.308-7.768-1.738
		c-2.148-1.173-3.606-2.844-3.805-5.438c-0.06-0.772,0.069-1.055,0.857-1.021c0.966,0.042,1.939,0.069,2.9-0.01
		c0.799-0.064,1.185,0.242,1.338,0.987c0.243,1.183,1.035,1.944,2.094,2.359c3.104,1.213,6.271,1.323,9.45,0.308
		c0.792-0.253,1.724-0.612,1.719-1.582c-0.004-0.98-0.929-1.378-1.749-1.546c-2.771-0.571-5.556-1.071-8.34-1.574
		c-1.72-0.311-3.404-0.748-4.902-1.66c-2.914-1.772-3.175-5.011-0.599-7.251c1.951-1.696,4.394-2.111,6.834-2.319
		c3.1-0.264,6.197-0.08,9.12,1.134c2.056,0.854,3.607,2.207,3.992,4.575c0.15,0.922-0.102,1.31-1.081,1.222
		c-0.768-0.069-1.548-0.044-2.32-0.006c-0.881,0.043-1.678,0.064-1.812-1.129c-0.031-0.273-0.329-0.55-0.561-0.763
		c-1.681-1.548-8.43-1.653-10.203-0.17c-1.182,0.989-0.421,1.597,0.505,1.935c2.005,0.732,4.141,0.896,6.234,1.24
		c2.347,0.385,4.727,0.664,6.889,1.758c1.673,0.847,3.015,1.967,3.166,4.037c0.161,2.22-1.018,3.668-2.753,4.735
		C107.448,346.146,104.513,346.461,100.862,346.453z"/>
	<path fill-rule="evenodd" clip-rule="evenodd" d="M422.353,282.067c-0.622,0.055-0.75,0.064-0.878,0.078
		c-4.424,0.45-8.462-0.191-11.961-3.347c-2.816-2.539-6.438-2.639-10.043-2.485c-0.845,0.035-1.121,0.275-1.074,1.105
		c0.061,1.093-0.074,2.2,0.037,3.284c0.13,1.259-0.397,1.47-1.533,1.472c-4.052,0.008-4.052,0.052-4.052-3.955
		c0-3.158,0.006-6.316-0.004-9.475c-0.002-0.732-0.101-1.405,1.028-1.373c6.241,0.183,12.497-0.338,18.729,0.387
		c1.495,0.174,2.901,0.596,4.097,1.546c2.017,1.602,1.919,3.84-0.214,5.269c-0.954,0.639-2.062,0.941-3.415,1.312
		c1.727,1.149,3.196,2.129,4.667,3.107C419.158,279.939,420.581,280.887,422.353,282.067z"/>
	<path fill-rule="evenodd" clip-rule="evenodd" d="M398.873,337.798c2.024,0.973,4.228,0.978,6.369,1.235
		c2.687,0.323,5.394,0.514,8.019,1.219c2.631,0.705,4.377,2.139,4.209,3.675c-0.248,2.268-2.029,3.185-3.943,3.743
		c-5.717,1.668-11.455,1.527-17.144-0.119c-1.696-0.49-3.222-1.449-3.92-3.197c-0.418-1.048-0.477-2.064,1.25-1.848
		c0.89,0.111,1.805,0.004,2.707,0.028c0.301,0.009,0.807,0.041,0.865,0.195c0.955,2.528,3.302,2.494,5.331,2.746
		c2.745,0.341,5.533,0.386,8.231-0.518c0.433-0.145,1.024-0.285,1.055-0.713c0.044-0.616-0.621-0.732-1.104-0.87
		c-2.559-0.729-5.217-0.797-7.832-1.148c-2.043-0.275-4.102-0.46-6.069-1.123c-1.682-0.566-3.473-1.197-3.461-3.35
		c0.011-2.104,1.739-2.875,3.42-3.437c3.61-1.206,7.345-1.232,11.088-0.921c1.666,0.138,3.332,0.348,4.924,0.927
		c0.979,0.355,1.886,0.811,2.662,1.523c0.716,0.658,1.206,1.58,0.99,2.399c-0.24,0.914-1.316,0.392-2.008,0.422
		c-1.455,0.064-3.044,0.44-3.99-1.267c-0.153-0.278-0.645-0.44-1.009-0.521c-3.127-0.683-6.266-0.723-9.391-0.017
		C399.666,336.968,399.095,337.1,398.873,337.798z"/>
	<path fill-rule="evenodd" clip-rule="evenodd" d="M405.521,150.482c-3.742-0.022-7.244-0.437-10.519-1.956
		c-2.441-1.132-4.532-2.747-4.552-5.691c-0.02-2.984,1.875-4.906,4.493-5.938c6.938-2.731,13.954-2.748,20.881,0.006
		c2.555,1.016,4.545,2.762,4.513,5.881c-0.031,3.017-2.005,4.62-4.442,5.75C412.56,150.082,408.98,150.456,405.521,150.482z"/>
	<path fill-rule="evenodd" clip-rule="evenodd" d="M405.759,326.707c-3.984-0.012-7.554-0.431-10.878-2.004
		c-2.363-1.119-4.385-2.725-4.434-5.58c-0.053-3,1.832-4.938,4.44-5.974c6.995-2.778,14.077-2.791,21.057,0.028
		c2.473,0.998,4.401,2.739,4.396,5.77c-0.006,3.021-1.953,4.646-4.387,5.79C412.625,326.303,409.041,326.664,405.759,326.707z"/>
	<path fill-rule="evenodd" clip-rule="evenodd" d="M412.436,210.953c0-2.703,0.039-5.387-0.021-8.07
		c-0.021-0.964,0.185-1.307,1.247-1.329c3.972-0.081,3.971-0.129,3.971,3.811c0,3.222-0.039,6.444,0.022,9.665
		c0.02,1.005-0.27,1.247-1.277,1.313c-2.466,0.162-4.555-0.368-6.618-1.894c-3.652-2.701-7.539-5.085-11.613-7.792
		c0,2.911-0.081,5.521,0.034,8.123c0.059,1.322-0.402,1.564-1.611,1.552c-3.844-0.039-3.844,0.011-3.844-3.923
		c0-3.157,0.048-6.316-0.026-9.471c-0.025-1.102,0.322-1.309,1.384-1.396c2.557-0.21,4.704,0.426,6.789,1.974
		c3.146,2.337,6.479,4.425,9.754,6.588C411.135,210.44,411.561,211.004,412.436,210.953z"/>
	<path fill-rule="evenodd" clip-rule="evenodd" d="M266.355,44.631c-0.773,0.224-1.588,0.41-2.364,0.699
		c-0.827,0.308-1.169,0.174-1.524-0.752c-1.09-2.845-4.034-3.798-6.854-2.367c-2.035,1.033-3.135,3.53-2.857,6.487
		c0.301,3.206,1.444,4.785,3.997,5.485c1.708,0.469,3.29,0.062,4.869-0.632c1.104-0.485,1.008-1.364,0.958-2.258
		c-0.07-1.25-1.047-0.58-1.62-0.697c-0.496-0.101-1.038-0.085-1.543-0.009c-1.476,0.223-1.988-0.281-1.919-1.84
		c0.056-1.257,0.202-1.833,1.651-1.735c2.056,0.139,4.129,0.082,6.192,0.015c0.94-0.031,1.226,0.269,1.181,1.194
		c-0.071,1.481-0.182,2.991,0.022,4.447c0.251,1.794-0.603,2.728-1.994,3.518c-2.494,1.416-5.137,2.095-7.979,1.566
		c-6.009-1.119-9.123-6.523-7.429-12.789c1.467-5.425,6.792-8.181,12.346-6.377C264.373,39.524,265.838,41.641,266.355,44.631z"/>
	<path fill-rule="evenodd" clip-rule="evenodd" d="M421.869,260.068c-2.326,0-4.24,0.089-6.141-0.031
		c-1.292-0.081-1.813-1.36-2.481-2.227c-0.96-1.243-2.015-1.791-3.602-1.646c-1.599,0.146-3.233,0.164-4.829,0.005
		c-3.127-0.313-5.856,0.08-7.436,3.246c-0.248,0.497-0.704,0.674-1.281,0.664c-1.723-0.028-3.444-0.01-5.559-0.01
		c2.603-2.992,4.979-5.729,7.361-8.46c1.101-1.262,2.376-2.407,3.284-3.794c1.453-2.218,3.392-2.864,5.886-2.531
		c0.665,0.088,1.239,0.125,1.672,0.716c0.303,0.412,0.705,0.749,1.057,1.125C413.708,251.315,417.615,255.506,421.869,260.068z"/>
	<path fill-rule="evenodd" clip-rule="evenodd" d="M417.776,184.454c0,0.581,0,1.161,0,1.741c0,5.284-1.243,6.972-6.367,7.93
		c-4.466,0.834-8.979,0.801-13.425-0.277c-3.754-0.91-5.121-2.716-5.135-6.596c-0.007-2.128,0.061-4.258-0.026-6.382
		c-0.046-1.133,0.355-1.375,1.425-1.387c4.163-0.049,4.163-0.089,4.163,4.04c0,1.483,0.064,2.97-0.017,4.448
		c-0.095,1.729,0.761,2.673,2.326,3.043c3.058,0.723,6.139,0.668,9.196,0.018c1.384-0.294,2.297-1.141,2.322-2.678
		c0.043-2.511,0.121-5.023,0.097-7.534c-0.009-0.949,0.17-1.314,1.243-1.342c4.198-0.106,4.197-0.153,4.197,4.01
		C417.776,183.81,417.776,184.132,417.776,184.454z"/>
	<path fill-rule="evenodd" clip-rule="evenodd" fill="#010101" d="M245.919,421.142c1.273-3.398,2.363-6.318,3.462-9.234
		c0.54-1.434,3.116-2.232,4.286-1.332c0.433,0.333,0.269,0.83,0.271,1.26c0.011,4.124-0.051,8.25,0.038,12.372
		c0.029,1.373-0.646,1.344-1.648,1.397c-1.187,0.064-1.56-0.29-1.508-1.501c0.1-2.354,0.029-4.717-0.332-7.181
		c-0.886,2.354-1.813,4.692-2.642,7.065c-0.378,1.083-0.846,1.633-2.154,1.646c-1.35,0.015-1.576-0.742-1.913-1.682
		c-0.835-2.331-1.723-4.642-2.881-6.912c0,2.413-0.099,4.833,0.037,7.239c0.083,1.477-0.754,1.275-1.662,1.306
		c-0.992,0.033-1.664,0.027-1.629-1.364c0.101-4.122,0.072-8.248,0.012-12.372c-0.016-1.105,0.366-1.314,1.41-1.438
		c1.913-0.227,3.152,0.079,3.768,2.203C243.626,415.349,244.758,417.984,245.919,421.142z"/>
	<path fill-rule="evenodd" clip-rule="evenodd" d="M404.873,124.34c2.676-3.227,5.318-6.301,7.817-9.486
		c0.925-1.179,1.879-1.752,3.386-1.601c1.255,0.126,2.532,0.026,4.182,0.026c-3.745,4.27-7.469,8.096-10.666,12.32
		c-1.862,2.46-4.041,2.485-6.552,2.412c-0.607-0.018-0.92-0.339-1.264-0.735c-3.965-4.56-7.937-9.115-12.184-13.991
		c2.214,0,4.102,0.001,5.989,0c0.796,0,1.021,0.703,1.403,1.177C399.605,117.717,402.204,120.991,404.873,124.34z"/>
	<path fill-rule="evenodd" clip-rule="evenodd" d="M286.007,44.54c4.421-0.663,7.532,1.331,8.014,5.028
		c0.568,4.375-1.937,7.97-5.8,8.322c-4.184,0.381-6.836-1.976-7.214-6.581c0.767,0,1.527,0.069,2.271-0.017
		c0.996-0.115,1.518,0.192,1.726,1.227c0.267,1.331,1.198,1.891,2.546,1.853c1.445-0.042,2.252-0.805,2.578-2.154
		c0.367-1.523,0.413-3.094-1.093-3.958c-1.485-0.854-2.941-0.598-4.042,0.952c-0.943,1.329-2.147,0.188-3.17,0.071
		c-0.966-0.111-0.314-1.089-0.228-1.611c0.423-2.538,0.998-5.051,1.409-7.59c0.137-0.844,0.313-1.217,1.27-1.191
		c2.642,0.072,5.29,0.088,7.932,0.002c1.664-0.054,1.114,1.125,1.053,1.836c-0.064,0.74,0.827,2.111-1.009,2.066
		c-1.547-0.038-3.101,0.071-4.643-0.032C286.329,42.679,285.836,43.156,286.007,44.54z"/>
	<path fill-rule="evenodd" clip-rule="evenodd" d="M256.271,418.105c0-2.062,0.042-4.124-0.019-6.185
		c-0.029-1.021,0.174-1.541,1.358-1.472c2.246,0.134,4.51,0.031,6.749,0.222c3.59,0.305,5.128,3.149,3.414,6.272
		c-0.346,0.631-0.206,0.844,0.235,1.198c1.472,1.182,1.566,2.792,1.09,4.396c-0.503,1.692-1.864,2.629-3.563,2.877
		c-2.745,0.402-5.521,0.29-8.29,0.314c-0.971,0.008-0.984-0.551-0.98-1.246C256.28,422.357,256.271,420.231,256.271,418.105z"/>
	<path fill-rule="evenodd" clip-rule="evenodd" d="M405.516,223.664c3.48,0,6.96-0.001,10.439,0c1.037,0,2.057-0.363,2.074,1.499
		c0.016,1.776-0.843,1.622-1.978,1.606c-2.191-0.03-4.384,0.043-6.572-0.032c-1.012-0.035-1.309,0.263-1.286,1.281
		c0.066,3.027-0.014,6.058,0.045,9.085c0.02,0.984-0.228,1.288-1.265,1.307c-4.222,0.075-4.221,0.118-4.221-4.134
		c0-1.933-0.12-3.876,0.037-5.796c0.126-1.541-0.456-1.825-1.835-1.75c-2.12,0.115-4.255-0.039-6.377,0.056
		c-1.264,0.056-1.79-0.184-1.789-1.631c0-1.409,0.573-1.529,1.708-1.512C398.169,223.697,401.843,223.664,405.516,223.664z"/>
	<path fill-rule="evenodd" clip-rule="evenodd" fill="#010101" d="M301.325,425.341c-2.617,0.619-4.495,0.314-5.827-2.123
		c-1.028-1.881-2.255-3.806-4.895-3.858c-1.111-0.022-1.708,0.177-1.577,1.454c0.098,0.956-0.076,1.941,0.041,2.893
		c0.187,1.509-0.335,2.022-1.874,1.912c-1.017-0.073-1.459-0.196-1.438-1.364c0.072-4.119,0.058-8.242,0.008-12.362
		c-0.014-1.043,0.208-1.5,1.367-1.443c2.761,0.136,5.531,0.09,8.292,0.24c2.175,0.119,3.588,1.343,4.036,3.232
		c0.482,2.028-0.099,3.482-2.079,4.698c-0.747,0.459-0.828,0.644-0.237,1.345C298.576,421.664,299.885,423.471,301.325,425.341z"/>
	<path fill-rule="evenodd" clip-rule="evenodd" fill="#010101" d="M313.447,417.442c3.873,0,3.758,0.004,3.923,3.952
		c0.077,1.853-0.58,2.779-2.197,3.516c-2.526,1.149-5.122,1.4-7.737,0.79c-4.4-1.027-6.516-4.568-5.76-9.273
		c0.643-3.998,4.03-6.445,8.658-6.256c3.563,0.146,5.659,1.45,6.525,4.104c0.151,0.464,0.724,1.251-0.311,1.274
		c-0.838,0.021-1.734,1.235-2.511,0.058c-1.688-2.563-3.701-3.357-6.263-2.366c-2.177,0.842-3.39,3.456-2.85,6.145
		c0.525,2.613,2.397,3.938,5.411,3.872c1.125-0.024,2.14-0.374,3.144-0.843c0.711-0.332,0.58-0.933,0.565-1.492
		c-0.021-0.828-0.686-0.591-1.149-0.62c-0.578-0.035-1.161-0.029-1.741-0.004c-1.012,0.044-1.812,0.134-1.81-1.415
		c0.003-1.506,0.731-1.502,1.779-1.449C311.896,417.474,312.673,417.442,313.447,417.442z"/>
	<path fill-rule="evenodd" clip-rule="evenodd" d="M316.812,392.661c0,3.313-0.073,6.07,0.031,8.821
		c0.05,1.295-0.602,1.29-1.516,1.249c-0.881-0.04-1.734,0.219-1.693-1.28c0.109-3.928,0.01-7.86,0.063-11.791
		c0.009-0.672-0.512-1.777,0.51-1.961c1.041-0.187,2.248-0.469,3.114,0.805c1.7,2.5,3.538,4.905,5.325,7.347
		c0.372,0.508,0.768,0.999,1.481,1.925c0-3.2,0.084-5.927-0.034-8.645c-0.061-1.388,0.521-1.531,1.676-1.55
		c1.159-0.02,1.557,0.254,1.53,1.487c-0.084,3.801,0.004,7.604-0.062,11.405c-0.013,0.731,0.615,1.928-0.44,2.156
		c-1.226,0.266-2.553,0.412-3.541-1.093C321.354,398.641,319.195,395.912,316.812,392.661z"/>
	<path fill-rule="evenodd" clip-rule="evenodd" d="M202.125,397.312c0-2.775,0.05-5.419-0.023-8.059
		c-0.033-1.176,0.172-1.685,1.542-1.69c1.425-0.007,1.677,0.485,1.65,1.771c-0.081,3.801,0.007,7.605-0.063,11.406
		c-0.012,0.64,0.616,1.765-0.509,1.915c-1.116,0.15-2.379,0.47-3.294-0.869c-1.851-2.71-3.846-5.32-5.784-7.971
		c-0.174-0.238-0.357-0.47-0.835-1.098c0,3.189-0.092,5.929,0.038,8.656c0.066,1.4-0.615,1.377-1.608,1.367
		c-0.969-0.01-1.653,0.062-1.611-1.354c0.118-3.928,0.011-7.862,0.07-11.793c0.01-0.65-0.555-1.748,0.571-1.913
		c1.065-0.156,2.235-0.388,3.093,0.878c1.804,2.663,3.753,5.228,5.663,7.818C201.271,396.712,201.411,397.193,202.125,397.312z"/>
	<path fill-rule="evenodd" clip-rule="evenodd" fill="#010000" d="M215.803,425.96c-4.885-0.007-8.16-3.172-8.13-7.855
		c0.031-4.82,3.373-8.05,8.267-7.988c4.77,0.06,8.063,3.36,8.03,8.047C223.936,422.924,220.748,425.967,215.803,425.96z"/>
	<path fill-rule="evenodd" clip-rule="evenodd" d="M406.672,172.149c-2.901,0-5.803-0.037-8.701,0.021
		c-1.013,0.021-1.467-0.144-1.444-1.325c0.076-4.06,0.069-8.122,0.003-12.182c-0.018-1.073,0.372-1.235,1.321-1.252
		c4.17-0.077,4.169-0.107,4.169,3.982c0,2.063,0.07,4.128-0.027,6.187c-0.055,1.165,0.229,1.536,1.463,1.507
		c3.866-0.091,7.736,0.024,11.602-0.065c1.299-0.03,1.573,0.379,1.608,1.614c0.039,1.376-0.504,1.569-1.679,1.538
		C412.217,172.1,409.443,172.149,406.672,172.149z"/>
	<path fill-rule="evenodd" clip-rule="evenodd" fill="#020202" d="M271.108,418.021c0-2.063,0.032-4.127-0.015-6.189
		c-0.021-0.908,0.092-1.41,1.22-1.387c3.416,0.071,6.836,0.067,10.252,0.002c1.138-0.021,1.197,0.526,1.229,1.414
		c0.035,0.998-0.26,1.37-1.298,1.34c-2.255-0.066-4.517,0.058-6.769-0.05c-1.339-0.063-1.448,0.573-1.423,1.629
		c0.023,0.985-0.03,1.754,1.377,1.673c1.992-0.115,3.998,0.016,5.994-0.048c0.993-0.032,1.479,0.091,1.49,1.305
		c0.011,1.276-0.46,1.499-1.579,1.446c-1.801-0.084-3.619,0.096-5.412-0.058c-1.606-0.136-1.9,0.494-1.899,1.952
		c0,1.403,0.294,1.945,1.808,1.85c2.184-0.14,4.385,0.026,6.574-0.061c1.166-0.047,1.377,0.427,1.387,1.462
		c0.01,1.026-0.314,1.312-1.322,1.295c-3.481-0.058-6.964-0.055-10.445,0c-0.94,0.015-1.219-0.256-1.189-1.192
		C271.154,422.278,271.108,420.148,271.108,418.021z"/>
	<path fill-rule="evenodd" clip-rule="evenodd" d="M168.561,403.074c-3.854,0.023-6.136-1.415-6.87-4.336
		c-0.141-0.562-0.64-1.487,0.26-1.585c0.859-0.093,2.057-0.767,2.716,0.523c1.26,2.467,2.742,3.181,5.44,2.617
		c0.946-0.197,1.774-0.576,1.866-1.655c0.093-1.091-0.796-1.38-1.61-1.609c-1.672-0.47-3.378-0.826-5.036-1.344
		c-1.87-0.583-3.155-1.746-3.165-3.877c-0.008-1.942,1.089-3.362,3.258-4.047c2.081-0.655,4.199-0.619,6.259,0.124
		c1.187,0.429,2.153,1.19,2.626,2.408c0.299,0.77,1.004,1.896-0.095,2.234c-0.775,0.24-2.218,0.92-2.796-0.919
		c-0.528-1.679-4.631-2.187-5.72-0.812c-0.838,1.06-0.112,1.722,0.846,2.012c1.845,0.559,3.768,0.878,5.587,1.501
		c1.818,0.622,3.059,1.825,3.061,3.979c0.003,2.186-1.209,3.455-3.033,4.274c-0.631,0.283-1.356,0.39-2.051,0.495
		C169.603,403.135,169.077,403.074,168.561,403.074z"/>
	<path fill-rule="evenodd" clip-rule="evenodd" d="M206.083,418.138c0,2.065-0.082,4.136,0.03,6.194
		c0.071,1.304-0.619,1.321-1.528,1.24c-0.805-0.072-1.902,0.401-1.783-1.186c0.102-1.348-0.027-2.711,0.037-4.063
		c0.046-0.979-0.238-1.405-1.294-1.354c-1.802,0.087-4.034-0.587-5.302,0.248c-1.415,0.931-0.484,3.323-0.483,5.06
		c0.001,1.481-0.801,1.268-1.706,1.31c-1.006,0.046-1.643,0.021-1.607-1.367c0.108-4.128,0.102-8.261,0.003-12.389
		c-0.033-1.383,0.623-1.385,1.629-1.381c1.001,0.004,1.721-0.006,1.661,1.383c-0.063,1.455-0.677,3.374,0.279,4.274
		c1.025,0.966,2.967,0.099,4.474,0.343c2.077,0.336,2.625-0.581,2.343-2.443c-0.085-0.567,0.071-1.174-0.029-1.737
		c-0.3-1.697,0.603-1.874,1.98-1.834c1.003,0.029,1.35,0.29,1.316,1.315C206.034,413.878,206.083,416.009,206.083,418.138z"/>
	<path fill-rule="evenodd" clip-rule="evenodd" fill="#010101" d="M246.569,403.108c-3.902-0.003-6.131-1.446-7.333-4.747
		c-1.227-3.371-0.413-7.166,1.981-9.232c2.304-1.988,6.768-2.413,9.472-0.902c0.799,0.446,1.525,1.008,1.974,1.8
		c0.429,0.759,1.459,1.585,0.69,2.457c-0.8,0.905-2.711,0.358-3.444-0.763c-1.088-1.664-3.517-2.194-5.507-1.202
		c-1.977,0.984-2.896,3.856-2.124,6.637c0.647,2.333,2.314,3.462,4.777,3.24c1.728-0.154,2.867-1.063,3.384-2.706
		c0.646-2.05,1.94-0.443,2.813-0.382c1.143,0.081,0.474,1.083,0.249,1.648C252.382,401.762,250.088,403.111,246.569,403.108z"/>
	<path fill-rule="evenodd" clip-rule="evenodd" fill="#010000" d="M234.053,402.638c-3.602,0.169-3.648,0.188-4.865-2.701
		c-0.459-1.091-1.018-1.674-2.271-1.496c-0.759,0.108-1.56,0.112-2.318,0c-1.401-0.208-2.046,0.423-2.525,1.681
		c-1.083,2.842-1.14,2.819-4.499,2.439c2.104-4.806,4.162-9.572,6.291-14.307c0.425-0.946,3.017-0.984,3.466-0.043
		C229.595,392.957,231.78,397.74,234.053,402.638z"/>
	<path fill-rule="evenodd" clip-rule="evenodd" fill="#010101" d="M253.212,402.525c2.097-4.77,4.137-9.481,6.249-14.161
		c0.523-1.16,3.063-1.091,3.621,0.089c2.197,4.643,4.341,9.31,6.516,13.991c-3.33,0.717-3.488,0.695-4.658-2.221
		c-0.521-1.299-1.175-2.025-2.66-1.78c-0.629,0.104-1.304,0.105-1.931,0c-1.472-0.249-2.39,0.328-2.64,1.757
		C257.265,402.74,255.67,403.144,253.212,402.525z"/>
	<path fill-rule="evenodd" clip-rule="evenodd" fill="#010000" d="M191.432,402.576c-3.533,0.357-3.595,0.383-4.833-2.622
		c-0.5-1.213-1.173-1.718-2.45-1.505c-0.439,0.073-0.91,0.075-1.348,0c-1.944-0.329-3.195,0.305-3.552,2.367
		c-0.447,2.584-2.399,1.849-4.302,1.863c0.84-1.948,1.608-3.743,2.388-5.533c1.178-2.706,2.411-5.389,3.523-8.122
		c0.421-1.034,0.94-1.475,2.112-1.449c1.114,0.023,1.693,0.324,2.168,1.391C187.143,393.471,189.267,397.923,191.432,402.576z"/>
	<path fill-rule="evenodd" clip-rule="evenodd" d="M291.318,402.599c-0.156-0.197-0.406-0.373-0.453-0.593
		c-0.654-3.042-2.513-3.966-5.526-3.626c-1.386,0.156-2.009,0.578-2.477,1.786c-1.102,2.845-1.145,2.827-4.473,2.363
		c2.077-4.729,4.17-9.404,6.173-14.116c0.489-1.15,1.361-0.67,2.112-0.793c0.901-0.147,1.373,0.258,1.75,1.09
		c2.062,4.551,4.185,9.074,6.287,13.606C293.652,403.279,292.468,402.725,291.318,402.599z"/>
	<path fill-rule="evenodd" clip-rule="evenodd" fill="#010101" d="M327.575,402.533c2.083-4.741,4.179-9.427,6.189-14.148
		c0.449-1.054,1.235-0.688,1.942-0.76c0.805-0.083,1.431,0.018,1.847,0.944c2.082,4.627,4.245,9.217,6.387,13.835
		c-3.082,0.794-3.581,0.672-4.541-1.963c-0.585-1.607-1.424-2.284-3.101-1.996c-0.564,0.098-1.175,0.1-1.737-0.001
		c-1.435-0.258-2.031,0.486-2.504,1.708C330.955,403.005,330.91,402.987,327.575,402.533z"/>
	<path fill-rule="evenodd" clip-rule="evenodd" fill="#080808" d="M213.252,387.61c1.868,0.001,3.74,0.067,5.604-0.024
		c1.18-0.058,1.169,0.568,1.199,1.425c0.032,0.938-0.149,1.331-1.238,1.358c-3.984,0.1-3.983,0.15-3.983,4.189
		c0,2.127-0.054,4.255,0.021,6.379c0.042,1.204-0.087,1.83-1.598,1.856c-1.621,0.029-1.735-0.667-1.703-1.948
		c0.073-2.962-0.031-5.93,0.049-8.891c0.033-1.229-0.258-1.814-1.59-1.636c-0.696,0.094-1.417-0.009-2.124,0.023
		c-0.89,0.04-1.592,0.091-1.557-1.231c0.03-1.151,0.275-1.602,1.508-1.528C209.639,387.689,211.447,387.61,213.252,387.61z"/>
	<path fill-rule="evenodd" clip-rule="evenodd" fill="#080808" d="M274.069,387.61c1.868,0.001,3.74,0.067,5.604-0.023
		c1.189-0.059,1.152,0.589,1.189,1.433c0.042,0.953-0.17,1.323-1.247,1.349c-3.976,0.094-3.975,0.144-3.975,4.2
		c0,2.126-0.056,4.255,0.022,6.378c0.045,1.217-0.105,1.867-1.61,1.839c-1.367-0.026-1.741-0.422-1.698-1.756
		c0.096-2.961-0.047-5.93,0.063-8.89c0.054-1.423-0.307-2.048-1.799-1.82c-0.63,0.097-1.288-0.012-1.931,0.023
		c-0.902,0.05-1.579,0.069-1.549-1.24c0.027-1.166,0.299-1.59,1.519-1.519C270.456,387.688,272.265,387.61,274.069,387.61z"/>
	<path fill-rule="evenodd" clip-rule="evenodd" d="M407.872,296.688c0,2.126-0.046,4.254,0.021,6.379
		c0.03,0.944-0.287,1.149-1.194,1.183c-4.335,0.154-4.334,0.187-4.334-4.21c0-3.094,0.043-6.188-0.023-9.279
		c-0.022-1.027,0.301-1.262,1.294-1.28c4.237-0.078,4.236-0.114,4.236,4.114C407.872,294.625,407.872,295.656,407.872,296.688z"/>
	<path fill-rule="evenodd" clip-rule="evenodd" fill="#070707" d="M291.318,402.599c1.126-0.16,2.301,0.281,3.394-0.282
		c0.624-2.194,0.181-4.435,0.264-6.651c0.084-2.249,0.098-4.507-0.01-6.753c-0.069-1.445,0.774-1.288,1.705-1.317
		c1.01-0.032,1.677,0.001,1.632,1.376c-0.104,3.213,0.011,6.433-0.057,9.647c-0.023,1.095,0.295,1.462,1.401,1.41
		c1.797-0.085,3.602,0.018,5.401-0.038c0.985-0.03,1.058,0.55,0.95,1.23c-0.093,0.592,0.478,1.65-0.71,1.623
		C300.633,402.736,295.965,403.232,291.318,402.599z"/>
	<path fill-rule="evenodd" clip-rule="evenodd" fill="#010101" d="M225.673,418.094c0-2.131,0.076-4.264-0.025-6.389
		c-0.072-1.534,0.918-1.187,1.775-1.242c0.935-0.06,1.576-0.015,1.54,1.268c-0.088,3.16,0.046,6.327-0.063,9.486
		c-0.049,1.405,0.425,1.763,1.74,1.674c1.606-0.108,3.231,0.054,4.838-0.052c1.179-0.078,1.203,0.521,1.226,1.401
		c0.024,0.932-0.127,1.389-1.235,1.359c-2.903-0.079-5.809-0.055-8.713-0.011c-0.85,0.013-1.118-0.265-1.099-1.105
		C225.707,422.354,225.673,420.224,225.673,418.094z"/>
	<path fill-rule="evenodd" clip-rule="evenodd" d="M311.044,395.436c0,2.065-0.068,4.135,0.025,6.195
		c0.06,1.277-0.717,1.161-1.477,1.073c-0.688-0.08-1.764,0.541-1.747-0.989c0.046-4.323,0.059-8.649-0.008-12.973
		c-0.022-1.437,0.894-1.074,1.67-1.125c0.896-0.058,1.627-0.088,1.564,1.235C310.969,391.043,311.044,393.241,311.044,395.436z"/>
	<path fill-rule="evenodd" clip-rule="evenodd" d="M272.663,55.77c0.563,2.222-1.069,1.584-2.24,1.763
		c-1.919,0.293-1.637-0.884-1.809-2.127c-0.31-2.239,1.155-1.629,2.335-1.8C272.854,53.33,272.846,54.436,272.663,55.77z"/>
	<path fill-rule="evenodd" clip-rule="evenodd" fill="#727471" d="M286.683,195.385c3.959,0.011,7.917,0.019,11.875,0.034
		c0.438,0.002,0.906-0.076,1.246,0.321c-4.53-0.006-9.062-0.013-13.592-0.02C286.369,195.609,286.526,195.497,286.683,195.385z"/>
	<path fill-rule="evenodd" clip-rule="evenodd" fill="#81358A" d="M288.846,252.639c0,16.001-0.016,32.002,0.029,48.004
		c0.004,1.381-0.387,2.168-1.604,2.92c-10.252,6.336-20.462,12.738-30.645,19.185c-1.15,0.729-1.975,0.664-3.124,0.045
		c-12.083-6.506-24.188-12.97-36.317-19.389c-1.138-0.603-1.497-1.284-1.49-2.545c0.072-14.259-0.109-28.521,0.156-42.775
		c0.334-17.93,0.156-35.858,0.262-53.787c0.009-1.462,0.306-1.977,1.898-1.973c22.97,0.055,45.939,0.058,68.909-0.003
		c1.726-0.004,1.962,0.621,1.957,2.12C288.828,220.506,288.847,236.572,288.846,252.639z"/>
	<path fill-rule="evenodd" clip-rule="evenodd" fill="#FEEC00" d="M269.855,333.327c6.808-0.577,13.645-1.318,20.454-0.655
		c8.911,0.868,17.911,0.612,26.759,2.159c4.596,0.805,5.692,2.482,4.637,6.984c-0.767,3.269-1.962,6.386-3.412,9.421
		c-0.615,1.289-1.498,1.44-2.664,1.222c-1.332-0.25-2.742-0.382-3.131-2.075c-0.465-2.023,0.55-4.666,2.277-5.813
		c0.805-0.534,1.149-1.177,0.697-2.12c-0.463-0.965-1.075-1.537-2.271-1.276c-3.667,0.8-6.392,2.733-7.606,6.385
		c-0.899,2.704-1.403,5.488-0.979,8.366c0.074,0.509,0.105,1.025,0.129,1.541c0.18,3.959-1.421,5.733-5.411,5.887
		c-2.384,0.091-4.772,0.075-7.159,0.089c-10.514,0.06-21.028,0.095-31.543,0.172c-15.415,0.113-30.829,0.246-46.243,0.393
		c-1.801,0.018-3.617,0.054-5.397,0.294c-1.767,0.239-2.856-0.413-3.516-1.979c-1.521-3.608-2.95-7.114-2.691-11.287
		c0.322-5.188-2.584-8.425-7.346-9.766c-1.57-0.442-2.087,0.525-2.804,1.361c-0.461,0.538,0.054,0.807,0.476,0.965
		c0.662,0.249,1.352,0.42,2.021,0.648c3.594,1.231,5.391,4.286,4.757,8.023c-0.135,0.794-0.436,1.477-1.018,2.031
		c-3.3,3.142-9.398,2.203-11.248-1.87c-1.434-3.159-2.681-6.416-3.799-9.701c-1.074-3.16-0.167-4.68,3.096-5.199
		c2.509-0.399,4.975-0.878,7.652-0.384c2.043,0.377,4.31-0.495,6.482-0.771c11.391-1.45,22.836-2.098,34.311-2.313
		c1.248-0.257,2.5-0.204,3.751-0.046c2.092,0.761,3.493,2.596,5.473,3.534c2.864,2.09,5.756,4.143,8.577,6.29
		c0.938,0.715,1.566,0.696,2.489-0.059c3.795-3.101,7.683-6.089,11.486-9.178C267.97,333.928,268.828,333.491,269.855,333.327z"/>
	<path fill-rule="evenodd" clip-rule="evenodd" fill="#3C3B39" d="M239.633,334.604c-1.397-0.372-2.911,0.165-4.266-0.546
		c0.199-0.929,1.077-1.656,0.799-2.725c0.174,0.117,0.35,0.234,0.525,0.352C237.503,332.829,239.227,333.052,239.633,334.604z"/>
	<path fill-rule="evenodd" clip-rule="evenodd" fill="#D3DCBA" d="M239.633,334.604c-0.741-1.215-2.427-1.476-2.942-2.918
		c2.8,1.729,5.375,3.76,7.899,5.86C242.598,337.137,241.455,335.298,239.633,334.604z"/>
	<path fill-rule="evenodd" clip-rule="evenodd" fill="#FEEC00" d="M191.13,375.267c-13.935-1.291-27.668-3.636-41.044-7.864
		c-0.123-0.039-0.255-0.051-0.373-0.102c-3.684-1.558-3.059-0.613-2.683-4.482c0.399-4.103,0.899-8.195,1.229-12.302
		c0.121-1.508,0.548-1.802,2.001-1.345c5.03,1.581,10.026,3.384,15.17,4.456c8.736,1.822,17.324,4.602,26.368,4.674
		c1.668,0.014,3.336-0.26,5.007-0.354c2.38-0.135,3.492,0.723,3.811,3.106c0.452,3.381,0.737,6.786,1.459,10.126
		c0.185,0.854-0.209,1.292-0.832,1.743C198.197,375.131,194.764,375.583,191.13,375.267z"/>
	<path fill-rule="evenodd" clip-rule="evenodd" fill="#FEEC00" d="M321.665,374.674c-4.316,0-8.633,0.038-12.948-0.019
		c-1.916-0.024-2.886-0.915-2.712-2.728c0.369-3.843,0.973-7.664,1.429-11.5c0.118-0.988,0.84-0.828,1.415-0.89
		c3.909-0.42,7.814-0.894,11.734-1.185c6.492-0.481,12.566-2.728,18.79-4.324c5.37-1.377,10.541-3.35,15.535-5.785
		c2.995-1.462,4.576-0.691,5.104,2.529c0.457,2.794,0.724,5.623,0.693,8.468c-0.028,2.639-0.98,4.876-3.303,6.18
		c-6.188,3.478-12.538,6.595-19.747,7.334c-3.152,0.323-6.054,1.73-9.232,1.989C326.169,374.927,323.925,375.101,321.665,374.674z"
		/>
	<path fill-rule="evenodd" clip-rule="evenodd" fill="#FEEC00" d="M166.496,338.396c-1.958-1.84-4.221-1.415-6.246-0.807
		c-1.391,0.419-1.658,2.103-1.93,3.518c-0.308,1.601-0.239,3.561-2.283,4.094c-2.31,0.603-4.327-0.154-5.919-1.928
		c-1.747-1.945-1.723-3.521,0.128-5.416c0.951-0.973,1.884-1.933,2.432-3.205c0.1-0.231,0.277-0.435,0.442-0.633
		c3.417-4.109,11.833-3.713,14.812,0.695c0.87,1.286,1.087,2.708,0.966,4.23c-0.198,2.498-0.521,4.979-0.469,7.507
		c0.054,2.653-1.491,3.69-4.07,3.027c-4.542-1.168-5.299-4.354-1.924-8.051C163.569,340.185,165.132,339.506,166.496,338.396z"/>
	<path fill-rule="evenodd" clip-rule="evenodd" fill="#FEEC00" d="M348.081,332.466c3.625-0.313,6.328,1.344,8.517,4.024
		c1.965,2.408,1.801,4.496-0.436,6.627c-0.094,0.089-0.185,0.18-0.28,0.266c-3.179,2.807-3.707,2.729-5.724-0.848
		c-0.788-1.397-1.631-2.77-2.329-4.21c-0.55-1.136-1.291-1.815-2.576-2.004c-0.77-0.113-1.852-0.188-1.792-1.333
		c0.061-1.17,0.773-2.069,1.934-2.344C346.256,332.44,347.184,332.516,348.081,332.466z"/>
	<path fill-rule="evenodd" clip-rule="evenodd" fill="#FDEB01" d="M339.66,344.834c0.166-1.593,0.371-3.183,0.486-4.779
		c0.045-0.609,0.199-0.696,0.799-0.632c3.238,0.347,6.151,3.311,6.318,6.563c0.069,1.35-0.499,2.326-1.832,2.841
		C342.51,349.954,339.624,347.976,339.66,344.834z"/>
	<path fill-rule="evenodd" clip-rule="evenodd" fill="#E20613" d="M247.274,87.27c4.102,5.516,8.114,10.719,11.904,16.08
		c2.475,3.499,3.67,4.012,7.538,2.275c2.156-0.968,3.261-0.295,3.95,2.299c1.228,4.616,0.688,9.035-1.173,13.398
		c-2.982,6.988-5.867,14.018-8.763,21.042c-0.202,0.491-0.785,1.05-0.302,1.584c0.392,0.433,0.983,0.003,1.466-0.074
		c4.758-0.762,8.826-3.121,12.836-5.609c2.232-1.385,4.478-2.75,6.953-4.269c0.263,2.158-0.175,3.93-0.686,5.679
		c-1.013,3.459-3.016,6.395-5.029,9.32c-1.535,2.23-3.119,4.432-4.255,6.907c-0.25,0.546-0.611,0.921-1.125,1.258
		c-2.263,1.485-3.532,3.688-4.324,6.218c-0.387,1.234-0.04,2.091,1.09,2.749c1.84,1.073,3.777,1.232,5.786,0.738
		c2.063-0.508,4.091-1.156,6.161-1.622c2.429-0.547,2.895-0.152,3.424,2.24c0.981,4.436-0.269,8.312-3.008,11.746
		c-1.686,2.113-3.813,3.9-5.329,6.115c-1.522,2.222-3.768,2.808-5.962,3.822c-6.448,2.98-13.118,2.782-19.892,1.839
		c-1.404-0.195-2.818-0.314-4.219-0.525c-8.028-1.21-12.727-6.271-15.489-13.509c-0.503-1.319-0.737-2.737-1.183-4.081
		c-1.076-3.244-0.948-6.437,0.125-9.662c0.332-0.997,1.474-2.163-0.232-3.142c-0.404-0.232,0.062-0.915,0.297-1.192
		c3.266-3.86,2.063-8.425,2.067-12.795c0-0.77-0.137-1.539-0.174-2.309c-0.088-1.86,0.893-2.588,2.642-1.856
		c1.001,0.419,1.877,1.13,2.869,1.58c1.701,0.771,2.432,0.319,2.45-1.508c0.048-4.956,0.787-9.875,0.627-14.849
		c-0.157-4.881-1.302-9.42-4.004-13.718c1.583-0.816,3.024-0.462,4.402,0.215c1.153,0.568,2.206,1.338,3.353,1.919
		c2.19,1.108,2.808,0.69,3.082-1.7c0.611-5.348-0.249-10.688,0.005-16.032C245.323,94.284,245.827,90.798,247.274,87.27z"/>
	<path fill-rule="evenodd" clip-rule="evenodd" fill="#FEFEFE" d="M343.582,170.118c1.484,0.185,2.948,0.464,4.422,0.524
		c1.465,0.059,1.636,0.632,1.237,1.91c-2.392,7.679-7.163,13.425-14.037,17.494c-3.41,2.019-3.328,1.974-5.163-1.409
		c-0.919-1.694-0.885-2.689,0.824-3.934c4.71-3.431,8.195-7.957,10.798-13.164C342.063,170.739,342.362,169.784,343.582,170.118z"/>
	<path fill-rule="evenodd" clip-rule="evenodd" fill="#FEFEFE" d="M159.288,170.092c1.29-0.531,1.994,0.357,2.704,1.88
		c2.456,5.266,5.94,9.788,10.553,13.359c1.15,0.891,1.487,1.556,0.718,2.979c-2.226,4.12-2.16,4.18-6.062,1.615
		c-6.606-4.342-11.131-10.205-13.119-17.942c-0.246-0.958-0.291-1.391,0.907-1.407C156.268,170.559,157.543,170.301,159.288,170.092
		z"/>
	<path fill-rule="evenodd" clip-rule="evenodd" fill="#F9FAFA" d="M223.357,42.01c0.896,0.052,1.809,0.009,2.682,0.18
		c0.962,0.188,1.629,0.851,1.617,1.884c-0.011,0.891-0.46,1.594-1.382,1.876c-1.888,0.578-3.828,0.237-5.745,0.313
		c-0.556,0.022-0.5-0.408-0.554-0.794C219.523,42.223,219.684,42.054,223.357,42.01z"/>
	<path fill-rule="evenodd" clip-rule="evenodd" fill="#FAFBFB" d="M100.609,129.934c-1.082,0-1.807-0.093-2.499,0.018
		c-1.957,0.312-2.564-0.353-2.542-2.41c0.02-1.908,0.527-2.434,2.359-2.246c2.426,0.25,4.899-0.26,7.317,0.359
		c1.043,0.267,2.098,0.639,2.142,1.881c0.047,1.346-1.024,1.773-2.144,2.089C103.59,130.091,101.901,129.769,100.609,129.934z"/>
	<path fill-rule="evenodd" clip-rule="evenodd" fill="#F8F9F9" d="M99.739,121.414c-0.643,0-1.286,0-1.929,0
		c-2.264,0-2.534-0.364-2.172-2.674c0.087-0.554,0.249-0.788,0.816-0.778c2.506,0.046,5.016,0.003,7.518,0.135
		c0.998,0.053,2.241,0.338,2.198,1.673c-0.04,1.241-1.296,1.369-2.196,1.464c-1.397,0.149-2.821,0.04-4.233,0.04
		C99.74,121.321,99.74,121.368,99.739,121.414z"/>
	<path fill-rule="evenodd" clip-rule="evenodd" fill="#FAFBFB" d="M100.509,220.952c-0.99,0-1.715-0.094-2.407,0.018
		c-1.971,0.318-2.545-0.379-2.534-2.419c0.011-1.926,0.551-2.42,2.368-2.236c2.427,0.245,4.899-0.261,7.317,0.36
		c1.043,0.268,2.096,0.644,2.133,1.888c0.04,1.346-1.03,1.775-2.153,2.081C103.582,221.093,101.895,220.828,100.509,220.952z"/>
	<path fill-rule="evenodd" clip-rule="evenodd" fill="#F8F9F9" d="M99.732,212.433c-0.643,0-1.286,0-1.929,0
		c-2.25-0.001-2.533-0.382-2.166-2.681c0.089-0.558,0.261-0.781,0.823-0.77c2.506,0.045,5.016,0.001,7.517,0.135
		c0.996,0.053,2.24,0.339,2.19,1.679c-0.046,1.24-1.302,1.363-2.202,1.458c-1.396,0.149-2.821,0.04-4.233,0.04
		C99.733,212.34,99.732,212.386,99.732,212.433z"/>
	<path fill-rule="evenodd" clip-rule="evenodd" fill="#F8F9F9" d="M100.348,269.911c1.674,0,3.356-0.105,5.018,0.039
		c1.043,0.09,2.508,0.251,2.596,1.546c0.1,1.463-1.365,1.707-2.5,1.877c-3.202,0.48-6.44,0.323-9.65,0.19
		c-1.577-0.066-0.577-1.617-0.787-2.47c-0.189-0.765,0.002-1.373,1.066-1.318c1.415,0.073,2.837,0.019,4.256,0.019
		C100.348,269.833,100.348,269.872,100.348,269.911z"/>
	<path fill-rule="evenodd" clip-rule="evenodd" fill="#FBFCFC" d="M101.395,312.313c-1.972,0.063-3.847-0.321-5.571-1.301
		c-2.015-1.145-3.108-2.819-2.98-5.218c0.129-2.41,1.158-4.159,3.444-5.12c3.581-1.505,7.155-1.563,10.653,0.15
		c1.99,0.975,3.114,2.634,3.174,4.934c0.062,2.35-0.89,4.102-2.953,5.245C105.366,312,103.437,312.404,101.395,312.313z"/>
	<path fill-rule="evenodd" clip-rule="evenodd" fill="#FBFCFC" d="M101.57,160.871c-1.974,0.065-3.727-0.266-5.373-1.1
		c-2.125-1.077-3.419-2.701-3.366-5.185c0.055-2.558,1.134-4.438,3.595-5.42c3.457-1.379,6.899-1.467,10.303,0.125
		c2.176,1.018,3.346,2.732,3.386,5.186c0.04,2.464-1.117,4.177-3.257,5.26C105.16,160.596,103.344,160.988,101.57,160.871z"/>
	<path fill-rule="evenodd" clip-rule="evenodd" fill="#F6F7F7" d="M404.658,270.567c1.761,0.134,3.891-0.264,5.979,0.287
		c0.678,0.179,1.708,0.253,1.702,0.96c-0.007,0.853-1.066,0.931-1.797,1.063c-3.758,0.674-7.552,0.173-11.327,0.321
		c-1.093,0.043-0.77-0.789-0.801-1.361c-0.034-0.63-0.14-1.311,0.893-1.282C400.976,270.601,402.645,270.567,404.658,270.567z"/>
	<path fill-rule="evenodd" clip-rule="evenodd" fill="#FBFCFC" d="M405.423,138.114c2.294-0.082,4.448,0.247,6.491,1.126
		c1.546,0.667,2.826,1.617,2.836,3.522c0.009,1.846-1.252,2.806-2.733,3.378c-4.38,1.692-8.815,1.711-13.196-0.009
		c-1.481-0.581-2.754-1.506-2.722-3.368c0.034-1.967,1.255-2.985,2.959-3.616C401.139,138.378,403.28,138.018,405.423,138.114z"/>
	<path fill-rule="evenodd" clip-rule="evenodd" fill="#FBFCFC" d="M405.476,323.546c-2.579,0.062-4.921-0.286-7.101-1.394
		c-1.331-0.675-2.355-1.6-2.279-3.268c0.073-1.591,0.922-2.69,2.345-3.254c4.496-1.779,9.051-1.862,13.569-0.118
		c1.562,0.604,2.803,1.668,2.738,3.583c-0.062,1.83-1.361,2.682-2.827,3.318C409.817,323.327,407.599,323.647,405.476,323.546z"/>
	<path fill-rule="evenodd" clip-rule="evenodd" fill="#F0F1F1" d="M402.81,252.964c1.083-1.336,1.997-2.463,3.008-3.709
		c1.022,1.192,2.005,2.336,3.182,3.709C406.83,252.964,404.999,252.964,402.81,252.964z"/>
	<path fill-rule="evenodd" clip-rule="evenodd" fill="#F8F9F9" d="M261.491,422.823c-0.623-0.053-2.164,0.657-2.036-1.741
		c0.086-1.603,0.445-2.199,2.048-1.971c0.886,0.127,1.801,0.041,2.696,0.113c1.01,0.082,1.778,0.599,1.775,1.666
		c-0.004,1.087-0.663,1.809-1.789,1.92C263.484,422.88,262.77,422.823,261.491,422.823z"/>
	<path fill-rule="evenodd" clip-rule="evenodd" fill="#F3F4F4" d="M261.948,413.267c1.378,0.174,3.222-0.382,3.273,1.576
		c0.052,1.922-1.829,1.374-2.96,1.515c-2.669,0.331-2.798,0.146-2.75-1.879C259.563,412.233,261.315,413.884,261.948,413.267z"/>
	<path fill-rule="evenodd" clip-rule="evenodd" fill="#FAFBFB" d="M292.127,413.279c0.896,0.049,1.801,0.042,2.687,0.164
		c0.749,0.104,1.359,0.557,1.397,1.362c0.041,0.857-0.448,1.496-1.297,1.68c-1.712,0.37-3.464,0.244-5.184,0.134
		c-1.217-0.078-0.578-1.206-0.656-1.862c-0.065-0.556-0.317-1.393,0.738-1.424c0.771-0.022,1.542-0.004,2.313-0.004
		C292.126,413.313,292.127,413.297,292.127,413.279z"/>
	<path fill-rule="evenodd" clip-rule="evenodd" fill="#FAFBFB" d="M215.898,423.252c-2.945,0.03-4.776-1.791-4.823-4.797
		c-0.056-3.581,1.543-5.495,4.655-5.569c2.931-0.069,4.909,2.035,4.906,5.221C220.635,421.239,218.809,423.222,215.898,423.252z"/>
	<path fill-rule="evenodd" clip-rule="evenodd" fill="#F2F2F2" d="M225.633,391.875c0.288,0.612,0.485,0.941,0.601,1.297
		c0.269,0.821,1.25,1.814,0.716,2.382c-0.543,0.576-1.794,0.302-2.781,0.048C224.387,394.331,225.01,393.281,225.633,391.875z"/>
	<path fill-rule="evenodd" clip-rule="evenodd" fill="#F2F2F2" d="M261.221,391.702c0.667,1.534,1.168,2.686,1.705,3.921
		c-1.133,0.168-2.682,0.502-2.896-0.064C259.583,394.375,260.786,393.292,261.221,391.702z"/>
	<path fill-rule="evenodd" clip-rule="evenodd" fill="#F2F2F2" d="M183.044,391.846c0.602,1.384,1.104,2.537,1.641,3.771
		c-1.123,0.182-2.682,0.498-2.881-0.052C181.377,394.384,182.48,393.265,183.044,391.846z"/>
	<path fill-rule="evenodd" clip-rule="evenodd" fill="#F2F2F2" d="M284.985,395.625c0.221-1.302,0.821-2.393,1.494-3.739
		c0.59,1.358,1.089,2.506,1.621,3.73C286.953,395.818,286.009,395.846,284.985,395.625z"/>
	<path fill-rule="evenodd" clip-rule="evenodd" fill="#F2F2F2" d="M335.635,391.796c0.438,1.013,0.649,1.686,0.999,2.275
		c0.815,1.373,0.5,1.829-1.104,1.727c-1.098-0.07-1.793-0.079-1.018-1.417C334.922,393.675,335.173,392.879,335.635,391.796z"/>
	<path fill-rule="evenodd" clip-rule="evenodd" fill="#FEFEFE" d="M257.61,233.02c0.229,0.328,0.459,0.655,0.688,0.983
		c2.431-0.537,4.758,1.039,5.794,4.124c2.012,5.992,3.614,12.014,3.609,18.473c-0.007,8.308,0.341,16.619,0.306,24.932
		c-0.002,0.517,0.026,1.034-0.019,1.548c-0.103,1.157-0.634,1.509-1.66,0.831c-0.362-0.239-0.708-0.724-1.17-0.338
		c-0.381,0.318-0.271,0.845-0.139,1.275c0.742,2.394,0.654,4.984,1.76,7.291c0.334,0.698,0.322,1.414-0.271,1.958
		c-0.572,0.526-1.394,0.651-1.982,0.239c-1.276-0.892-2.284-0.315-3.378,0.303c-1.188,0.671-2.306,1.767-3.86,0.773
		c-0.247-0.157-0.628,0.047-0.944,0.102c-0.189,0.033-0.358,0.159-0.537,0.203c-1.793,0.447-3.635-0.181-5.439,0.229
		c-0.211,0.049-0.569-0.191-0.612-0.411c-0.445-2.283-2.098-1.456-3.464-1.377c-0.923,0.054-2.248,0.641-2.575-0.487
		c-0.345-1.187,1.097-1.351,1.936-1.678c1.246-0.485,1.129-1.329,0.872-2.359c-0.282-1.128-0.847-1.387-1.971-1.136
		c-1.734,0.389-2.084,0.08-2.093-1.682c-0.044-8.699-0.076-17.399,0.375-26.092c0.027-0.524,0.234-1.011,0.273-1.514
		c0.137-1.742,0.56-3.465-1.266-4.852c-1.068-0.813-1.382-2.345-1.076-3.749c0.518-2.38,0.936-4.814,1.914-7.043
		c0.46-1.049,0.361-2.154,0.795-3.148c0.537-1.23,0.938-2.519,1.87-3.568c1.529-1.722,2.127-3.817,1.939-6.077
		c-0.097-1.171-0.008-2.304,0.117-3.452c0.317-2.934,2.966-4.392,5.764-3.168c1.651,2.016,2.465,4.427,3.293,6.847
		C256.701,231.712,256.512,232.765,257.61,233.02z"/>
	<path fill-rule="evenodd" clip-rule="evenodd" fill="#030303" d="M253.203,224.49c-3.279-1.252-5.703,0.415-5.627,3.888
		c0.015,0.696,0.174,1.388,0.193,2.084c0.054,1.973,0.123,3.966-1.329,5.576c-2.041,2.265-2.729,5.126-3.604,7.925
		c-0.662,2.121-1.201,4.264-1.707,6.424c-0.459,1.96,0.151,3.47,1.771,4.482c0.682,0.427,0.826,0.773,0.752,1.506
		c-0.712,7.051-0.89,14.125-0.859,21.207c0.014,3.092,0.098,6.186,0.012,9.274c-0.039,1.428,0.354,1.879,1.739,1.426
		c0.644-0.211,1.628-0.801,1.951-0.176c0.532,1.031,0.619,2.302,0.805,3.485c0.016,0.099-0.643,0.296-0.983,0.459
		c-0.954,0.454-2.108,0.571-2.832,1.62c1.767,0.696,3.374,0.1,4.984-0.23c0.914-0.187,1.696-0.515,1.283,1.072
		c-0.29,1.112,0.873,1.695,2.072,0.975c0.806-0.483,1.373-0.68,2.168-0.035c0.417,0.338,0.976,0.677,1.575-0.031
		c0.252-0.299,1.086-0.454,1.43-0.265c1.686,0.929,2.872-0.193,4.159-0.871c1.112-0.586,2.104-1.455,3.411-0.248
		c0.432,0.398,1.271,0.238,1.783-0.206c0.422-0.365,0.435-0.896,0.178-1.421c-1.266-2.588-1.183-5.505-1.963-8.216
		c-0.106-0.368-0.623-0.963,0.076-1.36c0.582-0.332,0.952,0.091,1.356,0.396c0.434,0.329,0.75,1.131,1.394,0.742
		c0.524-0.316,0.217-1.059,0.217-1.603c-0.009-9.986,0.156-19.978-0.393-29.955c-0.278-5.063-1.782-9.875-3.615-14.534
		c-0.846-2.149-2.375-4.18-5.302-3.878c1.158-1.038,2.566-0.649,3.999,0.794c2.308,2.324,2.767,5.435,3.757,8.313
		c2.152,6.256,1.926,12.771,2.043,19.26c0.119,6.631,0.438,13.259,0.287,19.894c-0.02,0.847,0.449,1.928-0.56,2.477
		c-0.984,0.534-1.596-0.552-2.613-0.924c0.589,2.681,0.799,5.289,1.706,7.746c0.28,0.761,0.515,1.545,0.248,2.248
		c-0.403,1.064-1.553,1.454-2.389,0.968c-1.857-1.082-3.147,0.023-4.559,0.802c-0.833,0.46-1.605,1.129-2.56,0.264
		c-0.045-0.041-0.136-0.09-0.173-0.071c-1.634,0.813-3.354,0.447-5.064,0.519c-1.47,0.061-2.827,0.555-3.41-1.317
		c-0.271-0.867-0.859-0.878-1.519-0.658c-1.267,0.422-2.56,0.154-3.838,0.222c-0.486,0.025-0.928-0.106-1.08-0.6
		c-0.132-0.427,0.215-0.732,0.503-0.971c0.644-0.534,1.331-1.02,2.16-1.231c1.175-0.301,1.249-1.096,0.955-2.065
		c-0.296-0.976-0.883-0.999-1.792-0.75c-1.742,0.479-2.332-0.037-2.337-1.912c-0.018-5.808-0.103-11.616,0.026-17.421
		c0.094-4.225,0.481-8.443,0.746-12.664c0.045-0.725-0.012-1.276-0.745-1.785c-1.238-0.859-1.772-2.205-1.627-3.715
		c0.27-2.795,0.86-5.528,1.897-8.144c0.611-1.542,0.873-3.183,1.397-4.754c0.405-1.213-0.799-2.384-1.649-3.278
		c-0.748-0.787-1.3,0.388-1.929,0.667c-0.695,0.308-1.307,0.818-1.926,1.279c-0.737,0.549-1.322,0.853-2.003-0.18
		c-0.705-1.069-0.242-1.563,0.636-2.052c0.449-0.25,0.867-0.554,1.296-0.838c2.251-1.49,2.328-1.539,0.861-3.888
		c-0.625-1-0.008-1.206,0.565-1.588c0.556-0.371,0.968-0.883,1.642,0.076c1.629,2.318,1.684,2.24,4.25,0.795
		c0.959-0.541,1.869-1.1,1.527-2.342c-0.597-2.173,1.23-2.77,2.43-3.373c1.343-0.674,3.098-1.224,4.302,0.584
		C253.604,224.585,253.418,224.619,253.203,224.49z"/>
	<path fill-rule="evenodd" clip-rule="evenodd" fill="#2F2934" d="M253.203,224.49c0.186-0.034,0.371-0.067,0.556-0.102
		c1.445-1.528,0.42-2.972-0.404-4.155c-0.868-1.247-2.289-1.916-3.914-1.368c-0.778,0.262-1.498,0.82-2.196-0.09
		c2.016-1.589,3.98-1.707,5.991-0.352c1.861,1.254,2.759,3.616,2.004,5.757c-0.375,1.063-0.284,1.885,0.177,2.911
		c0.863,1.917,1.477,3.946,2.193,5.928c-0.485,0.52-0.98,0.15-1.051-0.231C256,229.788,254.521,227.174,253.203,224.49z"/>
	<path fill-rule="evenodd" clip-rule="evenodd" fill="#332C3A" d="M246.529,224.44c-0.144,0.537-0.476,0.863-0.918,0.367
		c-0.981-1.1-0.413-4.479,0.837-5.246c0.005-0.003,0.172,0.259,0.263,0.397C246.245,221.436,245.434,222.899,246.529,224.44z"/>
	<path fill-rule="evenodd" clip-rule="evenodd" fill="#D9D8DA" d="M246.529,224.44c-1.196-1.147-1.141-2.507,0.182-4.481
		C246.607,221.451,245.915,222.919,246.529,224.44z"/>
	<path fill-rule="evenodd" clip-rule="evenodd" fill="#010101" d="M258.646,353.384c0.77-2.236,1.442-4.019,1.986-5.84
		c0.307-1.027,0.886-1.179,1.854-1.143c1.243,0.048,0.856,0.887,0.864,1.49c0.032,2.511-0.015,5.022,0.029,7.532
		c0.014,0.817-0.199,1.125-1.07,1.115c-0.867-0.01-0.899-0.453-0.89-1.093c0.021-1.396,0.007-2.794-0.236-4.237
		c-0.527,1.48-1.081,2.953-1.566,4.447c-0.182,0.56-0.399,0.876-1.049,0.868c-0.659-0.007-0.865-0.365-1.036-0.909
		c-0.44-1.397-0.929-2.779-1.799-4.151c0,1.274-0.008,2.549,0.004,3.823c0.006,0.67,0.069,1.276-0.949,1.244
		c-0.903-0.028-0.837-0.572-0.837-1.159c0.002-2.574-0.003-5.15,0.004-7.726c0.001-0.554-0.152-1.254,0.759-1.22
		c0.704,0.027,1.55-0.331,1.887,0.762C257.185,349.09,257.843,350.969,258.646,353.384z"/>
	<path fill-rule="evenodd" clip-rule="evenodd" fill="#010101" d="M282.272,356.347c-1.658,0.448-2.635,0.041-3.199-1.33
		c-0.217-0.526-0.607-0.982-0.929-1.464c-0.56-0.836-1.229-1.63-2.344-1.261c-1.146,0.38-0.36,1.435-0.535,2.164
		c-0.102,0.427-0.023,0.897-0.025,1.348c-0.005,0.787-0.578,0.675-1.087,0.711c-0.609,0.044-0.768-0.262-0.766-0.804
		c0.011-2.835,0.014-5.669,0-8.502c-0.003-0.588,0.262-0.782,0.813-0.772c1.48,0.028,2.966-0.034,4.441,0.065
		c1.146,0.078,2.157,0.575,2.5,1.79c0.354,1.249,0.287,2.498-0.933,3.271c-0.72,0.456-0.558,0.746-0.163,1.305
		C280.82,353.96,281.497,355.121,282.272,356.347z"/>
	<path fill-rule="evenodd" clip-rule="evenodd" fill="#010101" d="M264.795,351.417c0-0.449-0.045-0.904,0.009-1.348
		c0.142-1.179-0.594-3.057,0.333-3.4c1.589-0.589,3.537-0.531,5.261,0.171c0.9,0.365,1.623,1.193,1.42,2.079
		c-0.334,1.452-0.053,2.642,0.388,4.026c0.489,1.537-0.353,2.851-2.086,3.341c-1.521,0.431-3.064,0.133-4.595,0.22
		c-0.799,0.046-0.727-0.529-0.728-1.043C264.794,354.114,264.796,352.766,264.795,351.417z"/>
	<path fill-rule="evenodd" clip-rule="evenodd" fill="#010101" d="M282.687,351.063c0.151-1.289-0.698-3.366,0.313-4.336
		c0.999-0.961,3.062-0.196,4.654-0.284c0.386-0.021,0.774,0.021,1.159-0.008c0.757-0.056,1.197,0.11,1.175,1.035
		c-0.021,0.844-0.449,0.928-1.104,0.913c-1.029-0.022-2.06-0.004-3.091-0.006c-0.641-0.001-1.249-0.118-1.276,0.91
		c-0.032,1.135,0.63,1.04,1.357,1.028c0.901-0.014,1.805,0.026,2.704-0.012c0.736-0.031,1.015,0.238,1.019,0.998
		c0.003,0.804-0.364,0.981-1.061,0.956c-0.9-0.033-1.804,0.019-2.704-0.016c-0.782-0.029-1.32,0.01-1.324,1.077
		c-0.003,1.044,0.351,1.337,1.335,1.271c1.089-0.075,2.189,0.014,3.282-0.027c0.717-0.027,1.032,0.175,1.027,0.963
		c-0.006,0.748-0.233,1.016-0.993,0.998c-1.802-0.042-3.607-0.053-5.408,0.004c-0.864,0.027-1.112-0.291-1.079-1.112
		C282.726,354.065,282.687,352.712,282.687,351.063z"/>
	<path fill-rule="evenodd" clip-rule="evenodd" fill="#010101" d="M245.504,351.046c0.165-1.287-0.718-3.448,0.329-4.303
		c0.982-0.8,3.06-0.259,4.656-0.301c0.45-0.013,0.904,0.027,1.352-0.007c0.799-0.063,0.962,0.348,0.956,1.053
		c-0.005,0.677-0.275,0.909-0.92,0.895c-1.094-0.024-2.189,0.001-3.284-0.007c-0.658-0.005-1.253-0.085-1.258,0.932
		c-0.004,0.94,0.437,1.047,1.182,1.015c0.9-0.039,1.804,0.015,2.705-0.017c0.733-0.024,1.204,0.072,1.198,1.016
		c-0.007,1.021-0.62,0.936-1.276,0.931c-0.837-0.006-1.676,0.031-2.511-0.01c-0.805-0.039-1.296,0.053-1.307,1.096
		c-0.012,1.071,0.394,1.313,1.353,1.252c1.091-0.069,2.19,0.019,3.283-0.027c0.74-0.03,1.009,0.215,1.009,0.981
		c0.001,0.77-0.274,0.995-1.011,0.979c-1.803-0.039-3.607-0.054-5.409,0.005c-0.885,0.029-1.088-0.333-1.059-1.131
		C245.54,354.048,245.504,352.693,245.504,351.046z"/>
	<path fill-rule="evenodd" clip-rule="evenodd" fill="#010100" d="M222.273,346.44c4.391,0.005,6.409,2.702,5.182,6.928
		c-0.599,2.061-1.819,3.004-4.064,3.142c-3.836,0.233-3.836,0.233-3.836-3.513c0-1.283,0-2.566,0-3.85
		C219.554,346.438,219.554,346.438,222.273,346.44z"/>
	<path fill-rule="evenodd" clip-rule="evenodd" fill="#010101" d="M231.892,351.502c-0.013-2.784,1.333-4.535,3.835-4.989
		c1.914-0.349,3.813,0.586,4.452,2.231c0.139,0.357,0.611,0.871-0.068,1.118c-0.436,0.158-0.985,0.469-1.439,0.012
		c-0.219-0.221-0.301-0.574-0.515-0.804c-0.928-0.996-2.699-0.943-3.607,0.085c-0.872,0.987-0.916,3.512-0.079,4.545
		c1.046,1.293,3.216,1.21,4.047-0.347c0.519-0.972,1.162-1.043,1.8-0.632c0.703,0.452,0.13,1.149-0.153,1.677
		c-0.936,1.74-2.911,2.495-4.975,1.941C233.076,355.772,231.903,354.052,231.892,351.502z"/>
	<path fill-rule="evenodd" clip-rule="evenodd" d="M243.651,351.513c0,1.29-0.032,2.582,0.012,3.871
		c0.026,0.775-0.125,1.154-1.041,1.158c-1.007,0.005-0.957-0.553-0.953-1.23c0.012-2.581,0.025-5.163-0.008-7.744
		c-0.01-0.769,0.108-1.16,1.034-1.158c0.998,0.003,0.971,0.546,0.961,1.231C243.638,348.931,243.651,350.222,243.651,351.513z"/>
	<path fill-rule="evenodd" clip-rule="evenodd" d="M230.87,351.519c0,1.227-0.013,2.453,0.005,3.679
		c0.01,0.739,0.092,1.375-1.042,1.348c-1.01-0.023-0.948-0.568-0.945-1.24c0.011-2.581,0.026-5.163-0.009-7.744
		c-0.01-0.777,0.125-1.152,1.042-1.15c1.005,0.001,0.962,0.559,0.954,1.236C230.859,348.938,230.87,350.229,230.87,351.519z"/>
	<path fill-rule="evenodd" clip-rule="evenodd" fill="#030302" d="M167.731,362.177c-0.122,1.365-0.341,2.947-1.168,4.37
		c-0.68,1.17-1.701,1.743-3.051,1.562c-1.417-0.191-2.311-1.017-2.648-2.422c-0.391-1.625-0.029-3.193,0.429-4.729
		c0.634-2.125,2.012-3.143,3.725-2.877C166.73,358.345,167.733,359.771,167.731,362.177z"/>
	<path fill-rule="evenodd" clip-rule="evenodd" fill="#010101" d="M171.144,359.193c2.646-0.04,4.081,2.159,2.823,4.296
		c-0.465,0.791-0.026,1.14,0.154,1.687c0.56,1.69-0.51,3.577-2.287,4.048c-1.86,0.492-3.946-0.66-4.183-2.385
		c-0.063-0.464-0.485-1.255,0.46-1.383c0.564-0.076,1.164-0.013,1.291,0.797c0.138,0.879,0.746,1.414,1.592,1.352
		c0.747-0.056,1.277-0.612,1.32-1.426c0.043-0.826-0.396-1.297-1.206-1.482c-0.39-0.09-1.182,0.301-0.99-0.634
		c0.11-0.541,0.234-1.137,1.087-1.023c0.693,0.093,1.311-0.167,1.395-0.973c0.051-0.486-0.252-0.851-0.722-1.027
		c-0.741-0.28-1.26,0.047-1.575,0.684c-0.493,0.996-1.172,0.327-1.587,0.077c-0.617-0.371-0.118-0.905,0.149-1.315
		C169.438,359.607,170.298,359.241,171.144,359.193z"/>
	<path fill-rule="evenodd" clip-rule="evenodd" fill="#010101" d="M341.991,367.038c-0.157,1.326-0.809,2.341-2.179,2.812
		c-1.456,0.5-2.845,0.4-3.854-0.842c-0.787-0.97-1.609-2.069-0.507-3.388c0.36-0.431,0.391-0.783,0.01-1.32
		c-0.844-1.191-0.762-2.464,0.329-3.462c1.082-0.991,2.401-1.204,3.735-0.489c1.234,0.661,1.703,1.768,1.262,3.079
		c-0.229,0.676-0.099,1.002,0.385,1.449C341.751,365.413,341.979,366.17,341.991,367.038z"/>
	<path fill-rule="evenodd" clip-rule="evenodd" fill="#030302" d="M332.906,367.451c-2.977,1.09-4.896,0.155-5.205-2.441
		c-0.193-1.623,0.383-2.938,1.977-3.585c1.665-0.677,3.164-0.216,4.039,1.268c1.187,2.011,1.398,4.27,0.672,6.515
		c-0.412,1.274-1.44,1.924-2.773,2.063c-1.115,0.115-2.063-0.227-2.677-1.176c-0.238-0.368-0.83-0.864-0.235-1.325
		c0.438-0.34,0.995-0.462,1.582-0.016C331.925,370,332.368,369.791,332.906,367.451z"/>
	<path fill-rule="evenodd" clip-rule="evenodd" fill="#5D5B4F" d="M345.298,361.234c-1.014,0.136-1.95,0.289-2.893,0.375
		c-0.457,0.041-1.099,0.293-1.184-0.518c-0.071-0.682,0.031-1.331,0.872-1.458c1.7-0.256,3.4-0.58,5.111-0.664
		c0.801-0.039,1.138,0.75,0.736,1.472c-1.42,2.551-2.275,5.224-2.105,8.182c0.054,0.931-0.753,0.673-1.256,0.772
		c-0.821,0.163-0.753-0.465-0.785-0.963C343.636,365.938,344.297,363.605,345.298,361.234z"/>
	<path fill-rule="evenodd" clip-rule="evenodd" fill="#020201" d="M323.451,365.675c-0.461,0.28-0.714,0.458-0.988,0.595
		c-0.351,0.174-0.732,0.763-1.093,0.116c-0.264-0.473-0.56-1.047,0.101-1.536c0.78-0.577,1.479-1.246,1.875-2.155
		c0.201-0.462,0.588-0.448,0.96-0.438c0.64,0.017,0.6,0.531,0.664,0.971c0.371,2.537,0.757,5.072,1.113,7.611
		c0.075,0.534,0.295,1.12-0.644,1.277c-0.902,0.151-1.138-0.251-1.236-0.985C323.966,369.362,323.717,367.598,323.451,365.675z"/>
	<path fill-rule="evenodd" clip-rule="evenodd" fill="#F8F7F7" d="M240.316,229.002c0.66,0.272,0.925,0.835,1.14,1.333
		c0.705,1.633,1.667,1.615,2.914,0.626c0.448-0.355,0.962-0.636,1.472-0.903c0.337-0.177,0.76-0.701,1.041,0.072
		c0.157,0.432,0.282,0.88-0.25,1.173c-0.112,0.062-0.239,0.099-0.35,0.162c-0.948,0.532-1.894,1.068-2.84,1.603
		c0.532,0.845,1.019,1.724,1.611,2.524c0.477,0.644,0.176,1.117-0.267,1.46c-0.698,0.54-0.814-0.278-1.048-0.613
		c-1.762-2.531-1.711-2.471-4.408-0.828c-0.721,0.439-1.607,2.056-2.431,0.82c-0.64-0.959,1.19-1.088,1.713-1.794
		c0.107-0.145,0.316-0.213,0.477-0.32c2.248-1.504,2.243-1.502,0.905-3.917c-0.162-0.292-0.602-0.556-0.245-0.967
		C239.908,229.25,240.141,229.132,240.316,229.002z"/>
	<path fill-rule="evenodd" clip-rule="evenodd" fill="#7C3F84" d="M246.953,231.994c0.255,0.736,0.098,1.324-0.173,1.934
		c-0.225,0.504-0.201,1.327-0.919,1.242c-0.75-0.088-1.027-0.923-1.309-1.545c-0.354-0.779,0.527-0.721,0.864-0.964
		C245.854,232.345,246.424,232.211,246.953,231.994z"/>
	<path fill-rule="evenodd" clip-rule="evenodd" fill="#FBE904" d="M277.141,348.357c0.464,0.022,0.916,0.006,1.355,0.074
		c0.514,0.08,0.838,0.481,0.753,0.949c-0.187,1.04-1.094,1.02-1.825,0.9c-0.738-0.12-1.916,0.725-2.158-0.712
		C274.97,347.803,276.386,348.558,277.141,348.357z"/>
	<path fill-rule="evenodd" clip-rule="evenodd" fill="#F2E10D" d="M267.559,354.64c-0.524,0.089-1.06-0.127-1.035-1.351
		c0.031-1.483,1.035-0.995,1.754-1.03c0.896-0.045,2.028-0.124,1.978,1.185C270.199,354.895,268.936,354.502,267.559,354.64z"/>
	<path fill-rule="evenodd" clip-rule="evenodd" fill="#FAE905" d="M268.043,348.373c0.734,0.063,1.843-0.239,1.852,0.999
		c0.008,1.1-1.011,0.953-1.757,0.932c-0.683-0.021-1.599,0.363-1.589-0.979C266.556,348.134,267.33,348.413,268.043,348.373z"/>
	<path fill-rule="evenodd" clip-rule="evenodd" fill="#F9E805" d="M221.254,351.563c0-0.475-0.072-0.816,0.015-1.112
		c0.204-0.694-0.637-1.875,0.678-2.028c1.29-0.151,2.746-0.387,3.503,1.233c0.643,1.373,0.338,3.762-0.664,4.471
		c-0.973,0.688-2.285,0.792-3.112,0.3C220.684,353.836,221.47,352.432,221.254,351.563z"/>
	<path fill-rule="evenodd" clip-rule="evenodd" fill="#F9E804" d="M162.65,363.822c0.009-1.015,0.286-2.19,0.836-3.296
		c0.242-0.484,0.632-0.865,1.207-0.784c0.631,0.089,0.997,0.52,1.093,1.166c0.184,1.234-0.063,2.417-0.38,3.6
		c-0.258,0.961-0.567,2.096-1.751,1.894C162.475,366.201,162.528,365.038,162.65,363.822z"/>
	<path fill-rule="evenodd" clip-rule="evenodd" fill="#F0DF0F" d="M340.049,366.735c0.042,1.123-0.52,1.641-1.36,1.696
		c-0.965,0.064-1.593-0.569-1.654-1.495c-0.058-0.871,0.516-1.432,1.402-1.493C339.438,365.375,339.957,365.933,340.049,366.735z"/>
	<path fill-rule="evenodd" clip-rule="evenodd" fill="#E2D31A" d="M339.003,362.776c-0.082,0.687-0.54,1.032-1.159,0.996
		c-0.651-0.037-1.002-0.483-0.943-1.175c0.055-0.632,0.524-0.904,1.036-0.91C338.577,361.68,338.978,362.085,339.003,362.776z"/>
	<path fill-rule="evenodd" clip-rule="evenodd" fill="#F3E20B" d="M332.569,364.638c-0.104,0.876-0.469,1.616-1.499,1.602
		c-0.997-0.014-1.445-0.674-1.479-1.639c-0.034-0.962,0.407-1.717,1.341-1.787C332.049,362.73,332.354,363.688,332.569,364.638z"/>
</g>
</svg>
